<svg xmlns="http://www.w3.org/2000/svg" viewBox="0 0 32 32"><title>Artboard-37</title><g id="Shop"><path d="M13,25a2,2,0,1,0,2,2A2,2,0,0,0,13,25Zm0,3a1,1,0,1,1,1-1A1,1,0,0,1,13,28Z"/><path d="M22,25a2,2,0,1,0,2,2A2,2,0,0,0,22,25Zm0,3a1,1,0,1,1,1-1A1,1,0,0,1,22,28Z"/><path d="M24.957,21.7l4-9A.5.5,0,0,0,28.5,12H25v1h2.73l-3.555,8h-14.1L7,13h4V12H6.613l-.646-1.68A.5.5,0,0,0,5.5,10h-2a.5.5,0,0,0,0,1H5.157l4.876,12.68A.5.5,0,0,0,10.5,24h17a.5.5,0,0,0,0-1H10.843l-.384-1H24.5A.5.5,0,0,0,24.957,21.7Z"/><path d="M10.777,8.916,18,4.1l7.223,4.815a.5.5,0,1,0,.554-.832l-7.5-5a.5.5,0,0,0-.554,0l-7.5,5a.5.5,0,0,0,.554.832Z"/><path d="M12.5,9a.5.5,0,0,0-.5.5v6A1.5,1.5,0,0,0,13.5,17h9A1.5,1.5,0,0,0,24,15.5v-6a.5.5,0,0,0-1,0v6a.5.5,0,0,1-.5.5H20V13a2,2,0,0,0-4,0v3H13.5a.5.5,0,0,1-.5-.5v-6A.5.5,0,0,0,12.5,9ZM17,13a1,1,0,0,1,2,0v3H17Z"/></g></svg>