<?xml version="1.0" encoding="iso-8859-1"?>
<!-- Generator: Adobe Illustrator 22.0.1, SVG Export Plug-In . SVG Version: 6.00 Build 0)  -->
<svg version="1.1" id="_x35_0" xmlns="http://www.w3.org/2000/svg" xmlns:xlink="http://www.w3.org/1999/xlink" x="0px" y="0px"
	 viewBox="0 0 512 512" style="enable-background:new 0 0 512 512;" xml:space="preserve">
<linearGradient id="SVGID_1_" gradientUnits="userSpaceOnUse" x1="28.7797" y1="23.7409" x2="470.3037" y2="479.0985">
	<stop  offset="0" style="stop-color:#FEF050"/>
	<stop  offset="0.0348" style="stop-color:#FAE73D"/>
	<stop  offset="0.0935" style="stop-color:#F5DB22"/>
	<stop  offset="0.1536" style="stop-color:#F2D20F"/>
	<stop  offset="0.2152" style="stop-color:#F0CD04"/>
	<stop  offset="0.2809" style="stop-color:#EFCB00"/>
	<stop  offset="0.6685" style="stop-color:#D99544"/>
	<stop  offset="0.8876" style="stop-color:#CD6F3C"/>
	<stop  offset="1" style="stop-color:#C34435"/>
</linearGradient>
<path style="fill:url(#SVGID_1_);" d="M304.71,304.006c0-6.109-3.961-9.613-10.868-9.613h-31.04l20.17-21.451
	c5.909-6.292,10.182-12.108,12.7-17.288c2.573-5.292,3.878-11.033,3.878-17.062c0-8.915-3.185-16.128-9.465-21.437
	c-6.158-5.205-14.42-7.844-24.557-7.844c-1.381,0-2.5,1.119-2.5,2.5s1.119,2.5,2.5,2.5c8.923,0,16.099,2.241,21.33,6.662
	c5.176,4.376,7.692,10.139,7.692,17.618c0,5.265-1.136,10.27-3.375,14.876c-2.297,4.726-6.283,10.126-11.846,16.049l-24.13,25.663
	c-0.683,0.727-0.869,1.79-0.474,2.705c0.396,0.915,1.298,1.508,2.295,1.508h36.822c5.415,0,5.868,2.381,5.868,4.613
	c0,2.937-0.998,4.892-5.868,4.892H240.84c-1.729,0-3.011-0.457-3.922-1.4c-0.947-0.978-1.388-2.132-1.388-3.631
	c0-2.141,0.822-4.038,2.538-5.829l31.816-34.188c4.038-4.42,7.054-8.572,8.962-12.342c1.984-3.914,2.99-7.884,2.99-11.8
	c0-5.074-1.536-9.069-4.567-11.878c-2.978-2.755-7.162-4.151-12.438-4.151c-4.115,0-8.16,0.788-12.022,2.343
	c-3.739,1.507-7.541,3.59-11.308,6.198c-0.796,0.558-1.599,1.02-2.382,1.373c-0.61,0.274-1.187,0.407-1.764,0.407
	c-0.537,0-1.266-0.145-2.146-1.272c-0.816-1.042-1.213-2.272-1.213-3.76c0-0.995,0.169-1.839,0.505-2.511
	c0.351-0.703,0.958-1.418,1.805-2.126c1.06-0.886,1.201-2.462,0.316-3.521c-0.884-1.059-2.461-1.201-3.521-0.316
	c-1.38,1.153-2.415,2.409-3.073,3.73c-0.685,1.37-1.032,2.966-1.032,4.744c0,2.611,0.766,4.913,2.273,6.839
	c2.06,2.64,4.446,3.193,6.086,3.193c1.28,0,2.563-0.285,3.817-0.848c1.069-0.482,2.144-1.1,3.186-1.828
	c3.453-2.391,6.925-4.297,10.319-5.664c3.265-1.314,6.682-1.981,10.154-1.981c3.977,0,7.019,0.949,9.041,2.82
	c1.995,1.848,2.964,4.533,2.964,8.209c0,3.123-0.824,6.332-2.45,9.541c-1.704,3.365-4.46,7.143-8.177,11.211l-31.775,34.145
	c-2.59,2.702-3.903,5.818-3.903,9.263c0,2.802,0.941,5.193,2.795,7.107c1.875,1.94,4.403,2.924,7.516,2.924h53.001
	C300.749,313.897,304.71,310.292,304.71,304.006z"/>
<linearGradient id="SVGID_2_" gradientUnits="userSpaceOnUse" x1="67.8117" y1="-14.1053" x2="509.3357" y2="441.2523">
	<stop  offset="0" style="stop-color:#FEF050"/>
	<stop  offset="0.0348" style="stop-color:#FAE73D"/>
	<stop  offset="0.0935" style="stop-color:#F5DB22"/>
	<stop  offset="0.1536" style="stop-color:#F2D20F"/>
	<stop  offset="0.2152" style="stop-color:#F0CD04"/>
	<stop  offset="0.2809" style="stop-color:#EFCB00"/>
	<stop  offset="0.6685" style="stop-color:#D99544"/>
	<stop  offset="0.8876" style="stop-color:#CD6F3C"/>
	<stop  offset="1" style="stop-color:#C34435"/>
</linearGradient>
<path style="fill:url(#SVGID_2_);" d="M348.52,278.202v-37.52c0-1.094-0.711-2.061-1.755-2.387
	c-1.044-0.323-2.179,0.065-2.801,0.965l-25.942,37.52c-0.529,0.765-0.59,1.76-0.158,2.583c0.432,0.823,1.284,1.339,2.214,1.339
	h25.942C347.401,280.702,348.52,279.583,348.52,278.202z M343.52,275.702h-18.674l18.674-27.008V275.702z"/>
<linearGradient id="SVGID_3_" gradientUnits="userSpaceOnUse" x1="70.9955" y1="-17.1924" x2="512.5195" y2="438.1653">
	<stop  offset="0" style="stop-color:#FEF050"/>
	<stop  offset="0.0348" style="stop-color:#FAE73D"/>
	<stop  offset="0.0935" style="stop-color:#F5DB22"/>
	<stop  offset="0.1536" style="stop-color:#F2D20F"/>
	<stop  offset="0.2152" style="stop-color:#F0CD04"/>
	<stop  offset="0.2809" style="stop-color:#EFCB00"/>
	<stop  offset="0.6685" style="stop-color:#D99544"/>
	<stop  offset="0.8876" style="stop-color:#CD6F3C"/>
	<stop  offset="1" style="stop-color:#C34435"/>
</linearGradient>
<path style="fill:url(#SVGID_3_);" d="M346.719,311.656c2.102,2.042,4.823,3.078,8.088,3.078c3.262,0,5.983-1.035,8.089-3.078
	c2.122-2.062,3.198-4.917,3.198-8.487v-8.519h4.613c6.908,0,10.869-3.453,10.869-9.475c0-2.977-0.994-5.349-2.955-7.049
	c0,0-0.001-0.001-0.002-0.001c-1.857-1.608-4.52-2.424-7.913-2.424h-4.613v-54.406c0-3.606-1.171-6.485-3.484-8.56
	c-2.232-1.995-4.904-3.007-7.942-3.007c-1.873,0-3.704,0.441-5.441,1.311c-1.759,0.879-3.241,2.151-4.422,3.808l-43.068,61.884
	c-1.798,2.472-2.71,5.126-2.71,7.888c0,2.801,0.941,5.192,2.795,7.107c1.876,1.94,4.452,2.924,7.655,2.924h34.042v8.519
	C343.52,306.741,344.597,309.597,346.719,311.656z M309.478,289.65c-1.821,0-3.15-0.458-4.062-1.401
	c-0.947-0.978-1.388-2.131-1.388-3.63c0-1.707,0.573-3.324,1.783-4.989l43.081-61.902c0.695-0.973,1.536-1.697,2.572-2.216
	c1.052-0.526,2.1-0.782,3.204-0.782c1.796,0,3.304,0.567,4.607,1.732c1.224,1.098,1.819,2.679,1.819,4.834v56.906
	c0,1.381,1.119,2.5,2.5,2.5h7.113c2.155,0,3.716,0.404,4.638,1.202c0.528,0.458,1.231,1.296,1.231,3.271
	c0,2.165-0.454,4.475-5.869,4.475h-7.113c-1.381,0-2.5,1.119-2.5,2.5v11.019c0,2.198-0.55,3.802-1.681,4.9
	c-1.155,1.12-2.662,1.665-4.606,1.665c-1.946,0-3.452-0.544-4.605-1.665c-1.132-1.099-1.682-2.701-1.682-4.9V292.15
	c0-1.381-1.119-2.5-2.5-2.5H309.478z"/>
<linearGradient id="SVGID_4_" gradientUnits="userSpaceOnUse" x1="109.3038" y1="-54.3369" x2="550.8279" y2="401.0207">
	<stop  offset="0" style="stop-color:#FEF050"/>
	<stop  offset="0.0348" style="stop-color:#FAE73D"/>
	<stop  offset="0.0935" style="stop-color:#F5DB22"/>
	<stop  offset="0.1536" style="stop-color:#F2D20F"/>
	<stop  offset="0.2152" style="stop-color:#F0CD04"/>
	<stop  offset="0.2809" style="stop-color:#EFCB00"/>
	<stop  offset="0.6685" style="stop-color:#D99544"/>
	<stop  offset="0.8876" style="stop-color:#CD6F3C"/>
	<stop  offset="1" style="stop-color:#C34435"/>
</linearGradient>
<path style="fill:url(#SVGID_4_);" d="M442.573,239.02c-5.29,0-10.097,1.049-14.288,3.118c-2.085,1.03-3.978,2.298-5.667,3.793
	V220.18c0-3.154-1.083-5.709-3.218-7.593c-2.044-1.803-4.712-2.717-7.93-2.717c-3.236,0-5.939,0.971-8.033,2.886
	c-2.159,1.974-3.254,4.565-3.254,7.703v52.381c0,1.381,1.119,2.5,2.5,2.5s2.5-1.119,2.5-2.5v-52.381
	c0-1.723,0.518-2.998,1.628-4.014c1.159-1.06,2.683-1.575,4.659-1.575c1.991,0,3.503,0.479,4.623,1.467
	c1.041,0.918,1.525,2.139,1.525,3.843v32.498c0,1.11,0.732,2.087,1.797,2.399c1.063,0.312,2.208-0.115,2.808-1.051
	c2.063-3.22,4.848-5.711,8.276-7.405c3.497-1.727,7.559-2.602,12.074-2.602c14.662,0,21.491,8.114,21.491,25.536v34.311
	c0,1.916-0.504,3.336-1.542,4.342c-1.06,1.027-2.567,1.526-4.606,1.526c-2.055,0-3.593-0.508-4.705-1.554
	c-1.065-1-1.583-2.411-1.583-4.314v-34.311c0-5.605-1.184-9.681-3.621-12.461c-2.487-2.83-6.286-4.266-11.292-4.266
	c-5.708,0-10.376,1.855-13.873,5.515c-3.467,3.627-5.226,8.479-5.226,14.42v31.103c0,1.901-0.518,3.313-1.583,4.315
	c-1.112,1.045-2.651,1.553-4.704,1.553c-2.04,0-3.546-0.499-4.606-1.527c-1.037-1.005-1.542-2.425-1.542-4.341v-12.364
	c0-1.381-1.119-2.5-2.5-2.5s-2.5,1.119-2.5,2.5v12.364c0,3.295,1.031,5.964,3.062,7.931c2.009,1.949,4.729,2.938,8.086,2.938
	c3.339,0,6.074-0.979,8.128-2.91c2.096-1.971,3.159-4.648,3.159-7.958v-31.103c0-4.676,1.256-8.263,3.84-10.965
	c2.552-2.671,5.907-3.97,10.258-3.97c3.505,0,6.04,0.863,7.534,2.564c1.579,1.8,2.379,4.883,2.379,9.162v34.311
	c0,3.312,1.063,5.99,3.157,7.957c2.052,1.932,4.787,2.911,8.13,2.911c3.355,0,6.075-0.988,8.085-2.936
	c2.032-1.969,3.062-4.638,3.062-7.933v-34.311C469.063,255.625,464.468,239.02,442.573,239.02z"/>
<linearGradient id="SVGID_5_" gradientUnits="userSpaceOnUse" x1="-31.7942" y1="82.4745" x2="409.7299" y2="537.8322">
	<stop  offset="0" style="stop-color:#FEF050"/>
	<stop  offset="0.0348" style="stop-color:#FAE73D"/>
	<stop  offset="0.0935" style="stop-color:#F5DB22"/>
	<stop  offset="0.1536" style="stop-color:#F2D20F"/>
	<stop  offset="0.2152" style="stop-color:#F0CD04"/>
	<stop  offset="0.2809" style="stop-color:#EFCB00"/>
	<stop  offset="0.6685" style="stop-color:#D99544"/>
	<stop  offset="0.8876" style="stop-color:#CD6F3C"/>
	<stop  offset="1" style="stop-color:#C34435"/>
</linearGradient>
<path style="fill:url(#SVGID_5_);" d="M120.934,276.754c-7.492,7.492-7.492,19.682,0,27.174l65.112,65.112
	c3.746,3.746,8.667,5.619,13.587,5.619c4.921,0,9.841-1.873,13.587-5.619l30.704-30.703c3.604-3.604,8.396-5.589,13.493-5.589
	c5.097,0,9.888,1.984,13.493,5.589l13.913,13.913c0.976,0.977,2.56,0.977,3.535,0c0.977-0.977,0.977-2.559,0-3.535l-13.913-13.913
	c-4.548-4.549-10.596-7.054-17.028-7.054c-6.433,0-12.48,2.505-17.028,7.054l-30.704,30.703c-5.543,5.541-14.561,5.541-20.104,0
	l-65.112-65.112c-2.685-2.685-4.163-6.255-4.163-10.052s1.479-7.367,4.163-10.052l30.704-30.703c9.389-9.39,9.389-24.667,0-34.057
	l-43.71-43.71c-4.549-4.549-10.596-7.054-17.029-7.054c-6.432,0-12.48,2.505-17.028,7.054c-8.457,8.456-15.433,18.18-20.735,28.899
	c-0.612,1.237-0.105,2.737,1.132,3.35c1.238,0.609,2.737,0.104,3.349-1.133c5.061-10.231,11.719-19.511,19.79-27.581
	c3.604-3.604,8.396-5.589,13.493-5.589c5.097,0,9.888,1.984,13.493,5.589l43.71,43.71c7.44,7.44,7.44,19.546,0,26.986
	L120.934,276.754z"/>
<linearGradient id="SVGID_6_" gradientUnits="userSpaceOnUse" x1="-52.6316" y1="102.679" x2="388.8924" y2="558.0366">
	<stop  offset="0" style="stop-color:#FEF050"/>
	<stop  offset="0.0348" style="stop-color:#FAE73D"/>
	<stop  offset="0.0935" style="stop-color:#F5DB22"/>
	<stop  offset="0.1536" style="stop-color:#F2D20F"/>
	<stop  offset="0.2152" style="stop-color:#F0CD04"/>
	<stop  offset="0.2809" style="stop-color:#EFCB00"/>
	<stop  offset="0.6685" style="stop-color:#D99544"/>
	<stop  offset="0.8876" style="stop-color:#CD6F3C"/>
	<stop  offset="1" style="stop-color:#C34435"/>
</linearGradient>
<path style="fill:url(#SVGID_6_);" d="M210.644,447.039c1.766,0,3.538-0.066,5.313-0.2l32.958-2.486
	c26.125-1.971,50.714-13.259,69.24-31.784c4.549-4.548,7.054-10.596,7.054-17.028s-2.505-12.479-7.054-17.028
	c-0.976-0.977-2.56-0.977-3.535,0c-0.977,0.976-0.977,2.559,0,3.535c3.604,3.604,5.589,8.396,5.589,13.493
	c0,5.098-1.985,9.889-5.589,13.493c-17.681,17.68-41.149,28.452-66.081,30.333l-32.958,2.486
	c-19.009,1.44-37.647-5.476-51.129-18.957l-97.374-97.373c-13.481-13.482-20.391-32.118-18.957-51.129l2.136-28.312
	c0.104-1.377-0.928-2.577-2.305-2.682c-1.378-0.1-2.577,0.929-2.681,2.305l-2.136,28.312c-1.543,20.466,5.895,40.528,20.408,55.041
	l97.374,97.373C174.171,439.686,192.053,447.039,210.644,447.039z"/>
<linearGradient id="SVGID_7_" gradientUnits="userSpaceOnUse" x1="33.0725" y1="19.5786" x2="474.5965" y2="474.9362">
	<stop  offset="0" style="stop-color:#FEF050"/>
	<stop  offset="0.0348" style="stop-color:#FAE73D"/>
	<stop  offset="0.0935" style="stop-color:#F5DB22"/>
	<stop  offset="0.1536" style="stop-color:#F2D20F"/>
	<stop  offset="0.2152" style="stop-color:#F0CD04"/>
	<stop  offset="0.2809" style="stop-color:#EFCB00"/>
	<stop  offset="0.6685" style="stop-color:#D99544"/>
	<stop  offset="0.8876" style="stop-color:#CD6F3C"/>
	<stop  offset="1" style="stop-color:#C34435"/>
</linearGradient>
<path style="fill:url(#SVGID_7_);" d="M122.831,117.862c0.357-1.334-0.435-2.705-1.768-3.062c-1.335-0.354-2.705,0.435-3.062,1.768
	l-8.425,31.447c-0.865,3.225-0.421,6.594,1.249,9.485c1.669,2.892,4.365,4.96,7.59,5.824c1.077,0.288,2.17,0.432,3.256,0.432
	c2.166-0.001,4.304-0.568,6.229-1.681c2.892-1.669,4.96-4.365,5.824-7.59l16.929-63.18c0.864-3.225,0.42-6.594-1.249-9.485
	s-4.365-4.959-7.59-5.823c-3.223-0.862-6.593-0.421-9.485,1.249c-2.892,1.669-4.96,4.364-5.824,7.589
	c-0.357,1.334,0.435,2.705,1.768,3.062c1.333,0.354,2.704-0.435,3.062-1.768c0.518-1.936,1.759-3.553,3.494-4.554
	c1.733-1.001,3.754-1.271,5.691-0.749c1.935,0.518,3.552,1.759,4.554,3.494c1.001,1.734,1.268,3.756,0.749,5.69l-16.929,63.18
	c-0.518,1.935-1.759,3.552-3.494,4.554c-1.735,1.001-3.756,1.269-5.691,0.749c-1.935-0.519-3.552-1.76-4.554-3.494
	c-1.002-1.735-1.268-3.756-0.749-5.69L122.831,117.862z"/>
<linearGradient id="SVGID_8_" gradientUnits="userSpaceOnUse" x1="40.1938" y1="12.6736" x2="481.7178" y2="468.0312">
	<stop  offset="0" style="stop-color:#FEF050"/>
	<stop  offset="0.0348" style="stop-color:#FAE73D"/>
	<stop  offset="0.0935" style="stop-color:#F5DB22"/>
	<stop  offset="0.1536" style="stop-color:#F2D20F"/>
	<stop  offset="0.2152" style="stop-color:#F0CD04"/>
	<stop  offset="0.2809" style="stop-color:#EFCB00"/>
	<stop  offset="0.6685" style="stop-color:#D99544"/>
	<stop  offset="0.8876" style="stop-color:#CD6F3C"/>
	<stop  offset="1" style="stop-color:#C34435"/>
</linearGradient>
<path style="fill:url(#SVGID_8_);" d="M167.064,145.463c0.977-0.977,0.977-2.559,0-3.535c-0.976-0.977-2.56-0.977-3.535,0
	l-22.25,22.25c-4.874,4.874-4.874,12.804,0,17.678c2.437,2.438,5.638,3.655,8.839,3.655c3.201,0,6.402-1.218,8.838-3.655
	l46.25-46.25c2.361-2.36,3.662-5.5,3.662-8.839s-1.3-6.479-3.661-8.839c-2.361-2.361-5.5-3.661-8.839-3.661s-6.478,1.3-8.839,3.661
	c-0.977,0.977-0.977,2.559,0,3.535c0.976,0.977,2.56,0.977,3.535,0c1.417-1.416,3.3-2.196,5.304-2.196s3.887,0.78,5.303,2.196
	c2.924,2.925,2.924,7.683,0,10.607l-46.25,46.25c-2.924,2.925-7.681,2.925-10.607,0c-2.924-2.925-2.924-7.683,0-10.607
	L167.064,145.463z"/>
<linearGradient id="SVGID_9_" gradientUnits="userSpaceOnUse" x1="34.2237" y1="18.4623" x2="475.7477" y2="473.8199">
	<stop  offset="0" style="stop-color:#FEF050"/>
	<stop  offset="0.0348" style="stop-color:#FAE73D"/>
	<stop  offset="0.0935" style="stop-color:#F5DB22"/>
	<stop  offset="0.1536" style="stop-color:#F2D20F"/>
	<stop  offset="0.2152" style="stop-color:#F0CD04"/>
	<stop  offset="0.2809" style="stop-color:#EFCB00"/>
	<stop  offset="0.6685" style="stop-color:#D99544"/>
	<stop  offset="0.8876" style="stop-color:#CD6F3C"/>
	<stop  offset="1" style="stop-color:#C34435"/>
</linearGradient>
<path style="fill:url(#SVGID_9_);" d="M237.005,191.801l-63.179,16.929c-3.996,1.073-8.115-1.309-9.186-5.302
	c-1.07-3.995,1.309-8.116,5.303-9.187l31.701-8.494c1.334-0.357,2.125-1.729,1.768-3.062c-0.357-1.332-1.725-2.121-3.062-1.768
	l-31.701,8.494c-6.658,1.784-10.623,8.652-8.839,15.311c1.495,5.578,6.558,9.266,12.076,9.266c1.068-0.001,2.154-0.139,3.233-0.428
	l63.178-16.929c3.226-0.864,5.921-2.932,7.591-5.823s2.113-6.261,1.249-9.486c-0.865-3.225-2.933-5.921-5.824-7.59
	c-2.892-1.669-6.261-2.11-9.485-1.249c-1.334,0.357-2.125,1.729-1.768,3.062c0.357,1.333,1.73,2.124,3.062,1.768
	c1.937-0.521,3.956-0.253,5.691,0.749c1.735,1.002,2.976,2.619,3.494,4.554c0.519,1.936,0.252,3.957-0.749,5.691
	C240.558,190.042,238.94,191.283,237.005,191.801z"/>
</svg>
