<?xml version="1.0" encoding="UTF-8"?>
<!DOCTYPE svg PUBLIC "-//W3C//DTD SVG 1.1//EN" "http://www.w3.org/Graphics/SVG/1.1/DTD/svg11.dtd">
<!-- Creator: CorelDRAW -->
<svg xmlns="http://www.w3.org/2000/svg" xml:space="preserve" width="6.82666in" height="6.82666in" style="shape-rendering:geometricPrecision; text-rendering:geometricPrecision; image-rendering:optimizeQuality; fill-rule:evenodd; clip-rule:evenodd"
viewBox="0 0 6.82666 6.82666"
 xmlns:xlink="http://www.w3.org/1999/xlink">
 <defs>
  <style type="text/css">
   <![CDATA[
    .fil1 {fill:none}
    .fil0 {fill:#424242}
    .fil2 {fill:#FFFFFE;fill-rule:nonzero}
   ]]>
  </style>
 </defs>
 <rect class="fil0" width="6.82666" height="6.82666"/>
 <g id="Layer_x0020_1">
  <metadata id="CorelCorpID_0Corel-Layer"/>
  <g id="_259911560">
   <rect id="_259911536" class="fil1" width="6.82666" height="6.82666"/>
   <rect id="_259911824" class="fil1" x="0.853331" y="0.853331" width="5.12" height="5.12"/>
  </g>
  <g id="_259910744">
   <path id="_259911752" class="fil2" d="M2.28059 3.23965l-0.0153937 0.00145669 -0.0217441 0.0023189 -0.0220118 0.00260236 -0.0222795 0.00288976 -0.0225512 0.00316929 -0.0228386 0.00346063 -0.0231024 0.00375197 -0.0233898 0.00403543 -0.0236772 0.00433071 -0.0239606 0.00461811 0.0413937 0.209283 0.0219685 -0.00424016 0.0216142 -0.00395276 0.0212874 -0.00367323 0.0209449 -0.00339764 0.0206024 -0.00312205 0.0202835 -0.00285433 0.0199488 -0.00258268 0.0196181 -0.0023189 0.0192874 -0.00205906 0.0153937 -0.00145669 -0.0213937 -0.21226zm2.52144 2.37539l-0.0251299 -0.00116535 -0.0244449 -0.00138189 -0.0240906 -0.00161024 -0.0237323 -0.00183465 -0.0233898 -0.00205512 -0.0230472 -0.00227559 -0.0227087 -0.00249606 -0.0223622 -0.00270472 -0.014437 -0.00191732 -0.0292283 0.211323 0.0168386 0.00223228 0.0247323 0.00299606 0.0250394 0.00274803 0.0253465 0.00250394 0.0256575 0.00225984 0.0259764 0.00200787 0.0262795 0.00175197 0.0266024 0.00150787 0.0251299 0.00116535 0.0109685 -0.213055zm-0.399866 -0.0551654l-0.0135354 -0.00351181 -0.0185276 -0.00506299 -0.0182283 -0.00524803 -0.017937 -0.00542126 -0.0176457 -0.00560236 -0.0173701 -0.00576772 -0.0170709 -0.00594094 -0.0167913 -0.00610236 -0.0165118 -0.00626772 -0.0162402 -0.00642913 -0.0159764 -0.00659449 -0.000893701 -0.000385827 -0.0856378 0.195394 0.00374409 0.0016063 0.0188031 0.00775984 0.0190748 0.00755512 0.0193465 0.00734646 0.0196102 0.00712598 0.019874 0.00690945 0.0201417 0.00669685 0.0204173 0.00647638 0.0206929 0.00625591 0.0209685 0.00603543 0.021252 0.00581102 0.0135354 0.00351181 0.0549055 -0.20615zm-0.358154 -0.152965l-0.0124803 -0.00826772 -0.0125945 -0.00862598 -0.0123976 -0.00876772 -0.0121772 -0.00888583 -0.0119606 -0.00901181 -0.0117677 -0.00914567 -0.0115709 -0.00927953 -0.0113819 -0.00941339 -0.011189 -0.0095315 -0.0109961 -0.00964961 -0.010815 -0.0097874 -0.0106457 -0.00990945 -0.0104567 -0.0100276 0.000137795 0.000133858 -0.150929 0.150772 0.00204331 0.00201575 0.0126929 0.0121693 0.0129055 0.0120197 0.0131378 0.0118819 0.013374 0.0117441 0.0135984 0.0115866 0.0138307 0.0114291 0.0140669 0.0112795 0.0143031 0.011122 0.0145512 0.0109646 0.0147835 0.0107913 0.0150118 0.0106102 0.0152638 0.0104528 0.0124803 0.00826772 0.119181 -0.176937zm-0.276496 -0.268303l-0.00337402 -0.00474803 -0.00814567 -0.0117598 -0.00800394 -0.0118543 -0.00787402 -0.0119685 -0.00774803 -0.0120709 -0.00761417 -0.0121654 -0.00748819 -0.0122638 -0.00737008 -0.012378 -0.00724803 -0.0124685 -0.00712598 -0.0125591 -0.00701575 -0.0126693 -0.00689764 -0.012752 -0.00678346 -0.0128425 -0.00667717 -0.0129331 -0.00191339 -0.00379921 -0.190929 0.0951811 0.00281102 0.00556299 0.00759843 0.0147283 0.00775197 0.0146772 0.00790551 0.0146102 0.00805512 0.0145433 0.00822047 0.0144961 0.00838189 0.0144134 0.00854331 0.0143465 0.00871654 0.0142795 0.00888976 0.0142047 0.00906299 0.0141181 0.00923622 0.0140315 0.00942126 0.0139567 0.00960236 0.0138622 0.00337402 0.00474803 0.174638 -0.122528zm-0.182331 -0.354811l-3.54331e-005 -9.44882e-005 -0.00526772 -0.0140512 -0.00519291 -0.0141142 -0.00511811 -0.0141693 -0.00504331 -0.0142205 -0.00497638 -0.0142913 -0.00491732 -0.0143346 -0.00484252 -0.0143701 -0.00477165 -0.0144094 -0.00472047 -0.0144764 -0.00466929 -0.0145197 -0.0046063 -0.0145512 -0.00455512 -0.0145945 -0.0045 -0.0146142 -0.00254724 -0.00837795 -0.204228 0.0616535 0.00276772 0.00911024 0.00474409 0.0154094 0.00480709 0.0153898 0.00487402 0.0154016 0.00494488 0.0153937 0.00501969 0.0153976 0.00511024 0.0154094 0.00518898 0.0153937 0.00526378 0.015374 0.00535433 0.0153543 0.00544488 0.0153622 0.00554331 0.0153425 0.00563386 0.0153189 0.00574016 0.015311 3.54331e-005 9.44882e-005 0.19952 -0.0755276zm-0.12311 -0.397382l-0.00314173 -0.0116299 -0.00401969 -0.0149055 -0.00400394 -0.0149016 -0.00400394 -0.0149094 -0.00399606 -0.0148976 -0.00399606 -0.0148858 -0.004 -0.0148898 -0.00400394 -0.0148898 -0.00401181 -0.0148543 -0.00401969 -0.0148465 -0.00403543 -0.0148425 -0.00405118 -0.0148189 -0.00406693 -0.0147835 -0.00408661 -0.0147677 -0.00057874 -0.00206693 -0.205433 0.0575197 0.00046063 0.00163386 0.00398425 0.0144055 0.00398031 0.0144764 0.00397244 0.0145276 0.00396457 0.0145748 0.00396457 0.0146575 0.00397244 0.0147126 0.00397244 0.014748 0.00397638 0.014811 0.00398819 0.0148701 0.00400394 0.0149134 0.00401181 0.0149488 0.00403543 0.0150039 0.00405118 0.0150394 0.00314173 0.0116299 0.205969 -0.0555827zm-0.119244 -0.416465l-0.00200394 -0.00599213 -0.00482283 -0.0141654 -0.00489764 -0.0141102 -0.00497244 -0.0140551 -0.00505118 -0.0139882 -0.00512598 -0.0139173 -0.0052126 -0.0138622 -0.00530315 -0.0138071 -0.00540551 -0.013752 -0.00548819 -0.0136614 -0.00558268 -0.0135827 -0.00570079 -0.0135472 -0.00579921 -0.0134528 -0.00591339 -0.0133819 -0.00602362 -0.0132992 -0.00519685 -0.0111811 -0.193039 0.090811 0.00433071 0.00932283 0.00519685 0.0114646 0.00511811 0.0115945 0.00505906 0.0117283 0.00498425 0.0118465 0.00492913 0.012 0.00487402 0.0121181 0.00479921 0.0122244 0.00474409 0.0123504 0.00469291 0.0124764 0.0046378 0.0125945 0.00458661 0.0127047 0.0045315 0.0128031 0.00448031 0.0129134 0.00443701 0.0130236 0.00200394 0.00599213 0.202134 -0.0682126zm-0.202819 -0.413075l-0.0065748 -0.0086378 -0.0088937 -0.0113031 -0.0090748 -0.0111614 -0.00927165 -0.0110276 -0.0094685 -0.0108819 -0.00966142 -0.0107283 -0.0098622 -0.0105709 -0.0100669 -0.0104173 -0.0102756 -0.010252 -0.0104764 -0.0100748 -0.010685 -0.00990551 -0.0109016 -0.00972835 -0.0111063 -0.00953543 -0.0113228 -0.00935433 -0.0115512 -0.00916929 -0.0117559 -0.00895669 -0.0119685 -0.00875591 -0.00222047 -0.00155512 -0.12074 0.175874 -0.00126772 -0.000885827 0.00856693 0.00626772 0.00841732 0.00641339 0.00826772 0.00656299 0.00814173 0.00672441 0.00801969 0.00688976 0.00788583 0.00703543 0.00775591 0.00718898 0.00764961 0.00735827 0.00751969 0.00750394 0.00740551 0.00766142 0.00730315 0.00783071 0.00718898 0.00798031 0.00708268 0.00814173 0.00698031 0.00830315 0.00688583 0.0084685 0.00678346 0.00862598 0.0065748 0.0086378 0.168717 -0.130567zm-0.396236 -0.280303l-0.0136535 -0.00412205 -0.0158937 -0.00447244 -0.0160945 -0.00420866 -0.0163425 -0.00395669 -0.0165394 -0.00367717 -0.0167559 -0.00342126 -0.0169764 -0.00315354 -0.0171969 -0.00288976 -0.0174252 -0.00261811 -0.0176299 -0.00235433 -0.017874 -0.00208268 -0.0180787 -0.00181102 -0.0183189 -0.00154724 -0.0141496 -0.000968504 -0.0129685 0.212937 0.0108661 0.000748031 0.0149724 0.00126378 0.0147008 0.00147244 0.0144016 0.0016811 0.0141339 0.00188189 0.0138504 0.00208268 0.0135827 0.00228346 0.013315 0.0024685 0.0130472 0.00266535 0.0127992 0.00285039 0.0125157 0.00302756 0.0122992 0.00321654 0.0120354 0.00338583 0.0136535 0.00412205 0.0597244 -0.204803z"/>
   <path id="_259911656" class="fil2" d="M4.95969 4.79935c-0.148665,0 -0.282657,-0.0675551 -0.379091,-0.176752 -0.0933858,-0.105756 -0.151157,-0.250646 -0.151157,-0.409583 0,-0.158941 0.0577677,-0.303839 0.151157,-0.409598 0.0964291,-0.109201 0.230417,-0.176756 0.379091,-0.176756 0.148661,0 0.282654,0.0675551 0.379075,0.17676 0.0933858,0.105756 0.151154,0.250654 0.151154,0.409594 0,0.158941 -0.0577677,0.303831 -0.151154,0.409587 -0.0964252,0.109197 -0.230406,0.176748 -0.379075,0.176748zm-0.219925 -0.317587c0.056874,0.0644016 0.134685,0.104248 0.219925,0.104248 0.0852402,0 0.163039,-0.0398425 0.219909,-0.104244 0.0599134,-0.0678504 0.0969803,-0.162803 0.0969803,-0.268752 0,-0.105953 -0.0370669,-0.200909 -0.0969803,-0.26876 -0.0568701,-0.0644094 -0.134677,-0.104256 -0.219909,-0.104256 -0.0852441,0 -0.163051,0.0398465 -0.219925,0.104252 -0.0599173,0.0678543 -0.0969843,0.162811 -0.0969843,0.268764 0,0.105941 0.0370669,0.200894 0.0969843,0.268748z"/>
   <path id="_259911608" class="fil2" d="M4.95969 3.41333c-0.189283,0 -0.36128,0.0876024 -0.486335,0.22922 -0.128094,0.145063 -0.207335,0.346685 -0.207335,0.570465 0,0.0903465 0.0127087,0.176504 0.036189,0.256374 0.0243622,0.0828701 0.0602874,0.159732 0.105606,0.228173l0.551874 0.833268 0.55187 -0.833268c0.0453031,-0.068437 0.0812283,-0.145307 0.105587,-0.228185 0.0234724,-0.0798622 0.036185,-0.166016 0.036185,-0.256362 0,-0.223776 -0.0792323,-0.425394 -0.207327,-0.570461 -0.125051,-0.141622 -0.297047,-0.229224 -0.486315,-0.229224zm-0.6455 0.0883858c0.16461,-0.186413 0.392787,-0.301724 0.6455,-0.301724 0.252697,0 0.480874,0.115311 0.64548,0.301728 0.161563,0.182969 0.2615,0.434531 0.2615,0.711295 0,0.109866 -0.0159331,0.216252 -0.0453583,0.316362 -0.0304685,0.103669 -0.0754646,0.199909 -0.132248,0.285689l-0.640622 0.967272 -0.088752 0.134004 -0.088752 -0.134004 -0.640626 -0.967272c-0.0567953,-0.0857677 -0.101791,-0.182004 -0.132268,-0.285677 -0.0294291,-0.100114 -0.0453622,-0.206504 -0.0453622,-0.316374 0,-0.276772 0.0999409,-0.528331 0.261508,-0.711299z"/>
   <path id="_259911152" class="fil2" d="M1.86635 2.48909c-0.148665,0 -0.282657,-0.0675551 -0.379091,-0.176752 -0.0933858,-0.105756 -0.151157,-0.250646 -0.151157,-0.409583 0,-0.158945 0.0577677,-0.303839 0.151157,-0.409598 0.0964291,-0.109201 0.230417,-0.176756 0.379091,-0.176756 0.148661,0 0.282654,0.0675551 0.379075,0.17676 0.0933858,0.105756 0.151154,0.25065 0.151154,0.409594 0,0.158937 -0.0577677,0.303831 -0.151154,0.409587 -0.0964252,0.109197 -0.230406,0.176748 -0.379075,0.176748zm-0.219925 -0.317587c0.056874,0.0644016 0.134685,0.104248 0.219925,0.104248 0.0852402,0 0.163043,-0.0398425 0.219909,-0.104244 0.0599134,-0.0678504 0.0969803,-0.162803 0.0969803,-0.268752 0,-0.105953 -0.0370669,-0.200909 -0.0969803,-0.26876 -0.0568701,-0.0644094 -0.134677,-0.104256 -0.219909,-0.104256 -0.0852441,0 -0.163051,0.0398465 -0.219925,0.104252 -0.0599173,0.0678543 -0.0969843,0.162811 -0.0969843,0.268764 0,0.105945 0.0370669,0.200894 0.0969843,0.268748z"/>
   <path id="_259910912" class="fil2" d="M1.86635 1.10307c-0.189283,0 -0.36128,0.0876024 -0.486335,0.22922 -0.128094,0.145063 -0.207335,0.346685 -0.207335,0.570465 0,0.0903465 0.0127087,0.176504 0.036189,0.256374 0.0243622,0.0828701 0.0602874,0.159736 0.105606,0.228173l0.551874 0.833268 0.55187 -0.833268c0.0453031,-0.068437 0.0812283,-0.145307 0.105587,-0.228185 0.0234724,-0.0798622 0.036185,-0.166016 0.036185,-0.256362 0,-0.223772 -0.0792323,-0.425394 -0.207327,-0.570461 -0.125051,-0.141622 -0.297047,-0.229224 -0.486315,-0.229224zm-0.6455 0.0883858c0.16461,-0.186413 0.392787,-0.301724 0.6455,-0.301724 0.252697,0 0.480874,0.115311 0.64548,0.301728 0.161563,0.182969 0.2615,0.434531 0.2615,0.711295 0,0.109866 -0.0159331,0.216248 -0.0453583,0.316362 -0.0304685,0.103669 -0.0754646,0.199909 -0.132248,0.285689l-0.640622 0.967272 -0.088748 0.134004 -0.0887559 -0.134004 -0.640626 -0.967272c-0.0567953,-0.0857677 -0.101791,-0.182004 -0.132268,-0.285677 -0.0294291,-0.100114 -0.0453622,-0.206504 -0.0453622,-0.316374 0,-0.276772 0.0999409,-0.528331 0.261508,-0.711299z"/>
  </g>
 </g>
</svg>
