<?xml version="1.0" encoding="UTF-8"?>
<!DOCTYPE svg PUBLIC "-//W3C//DTD SVG 1.1//EN" "http://www.w3.org/Graphics/SVG/1.1/DTD/svg11.dtd">
<!-- Creator: CorelDRAW -->
<svg xmlns="http://www.w3.org/2000/svg" xml:space="preserve" width="6.82666in" height="6.82666in" style="shape-rendering:geometricPrecision; text-rendering:geometricPrecision; image-rendering:optimizeQuality; fill-rule:evenodd; clip-rule:evenodd"
viewBox="0 0 6.82666 6.82666"
 xmlns:xlink="http://www.w3.org/1999/xlink">
 <defs>
  <style type="text/css">
   <![CDATA[
    .fil1 {fill:none}
    .fil0 {fill:#424242}
    .fil2 {fill:#FFFFFE;fill-rule:nonzero}
   ]]>
  </style>
 </defs>
 <rect class="fil0" width="6.82666" height="6.82666"/>
 <g id="Layer_x0020_1">
  <metadata id="CorelCorpID_0Corel-Layer"/>
  <g id="_259913768">
   <rect id="_259913984" class="fil1" width="6.82666" height="6.82666"/>
   <rect id="_259913696" class="fil1" x="0.853331" y="0.853331" width="5.12" height="5.12"/>
  </g>
  <g id="_259913312">
   <path id="_259914080" class="fil2" d="M5.75856 1.84242l-0.904843 -0.381165 -0.856071 0.367035 -0.0424213 0.018189 -0.0425787 -0.0190236 -0.991193 -0.442772 -0.890591 0.385728 -0.0421457 0.0182559 -0.0416024 -0.0178386 -0.880449 -0.377488 0 2.16243 0.922114 0.395358 0.874929 -0.375126 0.0416654 -0.0178661 0.0416654 0.0178661 1.00894 0.432583 0.8555 -0.366791 0.0416614 -0.0178661 0.0416693 0.0178661 0.865469 0.371063 -0.00172047 -2.17043zm-0.864161 -0.594618l1.01161 0.426142 0.0649409 0.0273583 5.90551e-005 0.0705591 0.00190157 2.40238 0.000125984 0.16139 -0.148043 -0.0634724 -0.971846 -0.416673 -0.8555 0.366791 -0.0416693 0.0178622 -0.0416614 -0.0178622 -1.00894 -0.432583 -0.874929 0.375126 -0.0416654 0.0178622 -0.0416654 -0.0178622 -1.02878 -0.441091 -0.0650039 -0.027874 0 -0.0700433 0 -2.39399 0 -0.161512 0.148335 0.0635945 0.987181 0.423248 0.891339 -0.386051 0.0428976 -0.0185748 0.0425197 0.0189921 0.991134 0.442748 0.854748 -0.366469 0.0410906 -0.0176181 0.0418268 0.0176181z"/>
   <polygon id="_259913840" class="fil2" points="2.09546,1.67291 2.09546,4.04049 1.88212,4.04049 1.88212,1.67291 "/>
   <polygon id="_259913408" class="fil2" points="4.09301,1.67291 4.09301,3.05312 3.87967,3.05312 3.87967,1.67291 "/>
   <polygon id="_259913336" class="fil2" points="3.04944,1.3332 3.04944,3.68951 2.8361,3.68951 2.8361,1.3332 "/>
   <polygon id="_259913528" class="fil2" points="4.98731,1.40029 4.98731,3.76787 4.77397,3.76787 4.77397,1.40029 "/>
   <path id="_259912976" class="fil2" d="M4.10667 2.93848c0.279811,0 0.533146,0.113429 0.716528,0.296811 0.183382,0.183382 0.296807,0.436717 0.296807,0.716528 0,0.279811 -0.113425,0.533146 -0.296807,0.716528 -0.183382,0.183382 -0.436717,0.296807 -0.716528,0.296807 -0.55965,0 -1.01334,-0.453689 -1.01334,-1.01333 0,-0.55965 0.453689,-1.01334 1.01334,-1.01334zm0.565693 0.447646c-0.144764,-0.144764 -0.344768,-0.234307 -0.565693,-0.234307 -0.441827,0 -0.8,0.358173 -0.8,0.8 0,0.441823 0.358173,0.799996 0.8,0.799996 0.220925,0 0.420929,-0.0895394 0.565693,-0.234303 0.144764,-0.144764 0.234303,-0.344768 0.234303,-0.565693 0,-0.220925 -0.0895394,-0.420929 -0.234303,-0.565693z"/>
   <path id="_259913432" class="fil2" d="M4.7196 4.60663c-0.0416496,-0.0416496 -0.109185,-0.0416496 -0.150835,0 -0.0416496,0.0416496 -0.0416496,0.109185 0,0.150835l0.912795 0.912795c0.0416496,0.0416496 0.109185,0.0416496 0.150835,0 0.0416496,-0.0416496 0.0416496,-0.109185 0,-0.150835l-0.912795 -0.912795z"/>
  </g>
 </g>
</svg>
