<?xml version="1.0" encoding="iso-8859-1"?>
<!-- Generator: Adobe Illustrator 22.0.1, SVG Export Plug-In . SVG Version: 6.00 Build 0)  -->
<svg version="1.1" id="_x35_0" xmlns="http://www.w3.org/2000/svg" xmlns:xlink="http://www.w3.org/1999/xlink" x="0px" y="0px"
	 viewBox="0 0 512 512" style="enable-background:new 0 0 512 512;" xml:space="preserve">
<linearGradient id="SVGID_1_" gradientUnits="userSpaceOnUse" x1="16.8747" y1="17.0723" x2="489.5244" y2="489.1456">
	<stop  offset="0" style="stop-color:#FEF050"/>
	<stop  offset="0.0348" style="stop-color:#FAE73D"/>
	<stop  offset="0.0935" style="stop-color:#F5DB22"/>
	<stop  offset="0.1536" style="stop-color:#F2D20F"/>
	<stop  offset="0.2152" style="stop-color:#F0CD04"/>
	<stop  offset="0.2809" style="stop-color:#EFCB00"/>
	<stop  offset="0.6685" style="stop-color:#D99544"/>
	<stop  offset="0.8876" style="stop-color:#CD6F3C"/>
	<stop  offset="1" style="stop-color:#C34435"/>
</linearGradient>
<path style="fill:url(#SVGID_1_);" d="M252.642,108.479c-19.253-19.253-44.852-29.857-72.08-29.857s-52.827,10.604-72.08,29.857
	c-0.977,0.976-0.977,2.559,0,3.535c0.977,0.977,2.559,0.977,3.535,0c18.309-18.309,42.652-28.392,68.545-28.392
	s50.236,10.083,68.545,28.392c37.796,37.796,37.796,99.294,0,137.091c-4.534,4.534-9.438,8.561-14.644,12.058
	c-0.045,0.028-0.087,0.059-0.131,0.09c-15.788,10.568-34.343,16.244-53.77,16.244c-25.893,0-50.236-10.083-68.545-28.392
	c-21.25-21.251-31.334-50.568-27.665-80.436c0.168-1.37-0.807-2.618-2.177-2.786c-1.363-0.166-2.618,0.807-2.786,2.177
	c-3.857,31.405,6.746,62.234,29.093,84.58c19.253,19.253,44.852,29.857,72.08,29.857c19.757,0,38.653-5.587,54.892-16.006
	l28.765,28.765c-6.623,6.802-6.577,17.717,0.157,24.451L372.94,428.273c3.399,3.399,7.863,5.099,12.326,5.098
	c4.458,0,8.916-1.696,12.308-5.088l30.706-30.706c3.287-3.288,5.098-7.661,5.096-12.314c-0.002-4.654-1.814-9.03-5.105-12.32
	l-23.842-23.841c-0.977-0.977-2.559-0.977-3.535,0c-0.977,0.976-0.977,2.559,0,3.535l23.842,23.841
	c2.347,2.347,3.64,5.467,3.641,8.787c0.001,3.318-1.288,6.435-3.631,8.777l-30.706,30.707c-4.84,4.838-12.718,4.834-17.563-0.01
	L267.91,316.172c-4.839-4.84-4.839-12.714,0-17.554l30.706-30.706c4.838-4.84,12.714-4.839,17.554,0l56.669,56.67
	c0.977,0.977,2.559,0.977,3.535,0c0.977-0.976,0.977-2.559,0-3.535l-56.669-56.67c-6.732-6.733-17.648-6.78-24.451-0.156
	l-28.783-28.783C291.667,196.008,287.062,142.898,252.642,108.479z M291.711,267.747l-11.983,11.983l-11.983,11.982l-14.288-14.288
	l23.965-23.965L291.711,267.747z M273.887,249.924l-23.965,23.964l-10.254-10.253c4.576-3.27,8.917-6.938,12.974-10.995
	c4.082-4.082,7.737-8.429,10.98-12.982L273.887,249.924z"/>
<linearGradient id="SVGID_2_" gradientUnits="userSpaceOnUse" x1="16.8747" y1="17.0723" x2="489.5244" y2="489.1456">
	<stop  offset="0" style="stop-color:#FEF050"/>
	<stop  offset="0.0348" style="stop-color:#FAE73D"/>
	<stop  offset="0.0935" style="stop-color:#F5DB22"/>
	<stop  offset="0.1536" style="stop-color:#F2D20F"/>
	<stop  offset="0.2152" style="stop-color:#F0CD04"/>
	<stop  offset="0.2809" style="stop-color:#EFCB00"/>
	<stop  offset="0.6685" style="stop-color:#D99544"/>
	<stop  offset="0.8876" style="stop-color:#CD6F3C"/>
	<stop  offset="1" style="stop-color:#C34435"/>
</linearGradient>
<path style="fill:url(#SVGID_2_);" d="M126.9,126.899c-29.589,29.588-29.589,77.733,0,107.321
	c14.794,14.794,34.228,22.191,53.661,22.191s38.867-7.397,53.661-22.191c15.992-15.993,23.978-38.096,21.907-60.64
	c-0.126-1.375-1.356-2.383-2.718-2.261c-1.375,0.126-2.388,1.343-2.261,2.718c1.934,21.061-5.525,41.708-20.464,56.648
	c-27.639,27.638-72.611,27.639-100.252,0c-27.639-27.639-27.639-72.612,0-100.251c27.641-27.639,72.611-27.639,100.252,0
	c0.977,0.977,2.559,0.977,3.535,0c0.977-0.976,0.977-2.559,0-3.535C204.635,97.31,156.488,97.31,126.9,126.899z"/>
<linearGradient id="SVGID_3_" gradientUnits="userSpaceOnUse" x1="10.5122" y1="23.4425" x2="483.162" y2="495.5158">
	<stop  offset="0" style="stop-color:#FEF050"/>
	<stop  offset="0.0348" style="stop-color:#FAE73D"/>
	<stop  offset="0.0935" style="stop-color:#F5DB22"/>
	<stop  offset="0.1536" style="stop-color:#F2D20F"/>
	<stop  offset="0.2152" style="stop-color:#F0CD04"/>
	<stop  offset="0.2809" style="stop-color:#EFCB00"/>
	<stop  offset="0.6685" style="stop-color:#D99544"/>
	<stop  offset="0.8876" style="stop-color:#CD6F3C"/>
	<stop  offset="1" style="stop-color:#C34435"/>
</linearGradient>
<path style="fill:url(#SVGID_3_);" d="M165.767,181.846c4.262-4.934,6.422-12.113,6.422-21.338c0-9.141-2.16-16.279-6.422-21.216
	c-4.355-5.041-10.406-7.597-17.985-7.597c-7.586,0-13.619,2.56-17.933,7.607c-4.215,4.931-6.352,12.066-6.352,21.206
	c0,9.223,2.137,16.399,6.351,21.328c4.312,5.047,10.346,7.607,17.934,7.607C155.362,189.443,161.414,186.887,165.767,181.846z
	 M147.781,184.443c-6.144,0-10.766-1.915-14.131-5.854c-0.001,0-0.001-0.001-0.001-0.001c-3.419-3.998-5.152-10.081-5.152-18.079
	c0-7.915,1.733-13.957,5.152-17.958c3.367-3.94,7.99-5.855,14.132-5.855c6.146,0,10.792,1.919,14.201,5.865
	c3.454,4.002,5.206,10.041,5.206,17.948c0,7.991-1.751,14.07-5.206,18.07C158.575,182.524,153.93,184.443,147.781,184.443z"/>
<linearGradient id="SVGID_4_" gradientUnits="userSpaceOnUse" x1="10.4994" y1="23.4554" x2="483.1491" y2="495.5287">
	<stop  offset="0" style="stop-color:#FEF050"/>
	<stop  offset="0.0348" style="stop-color:#FAE73D"/>
	<stop  offset="0.0935" style="stop-color:#F5DB22"/>
	<stop  offset="0.1536" style="stop-color:#F2D20F"/>
	<stop  offset="0.2152" style="stop-color:#F0CD04"/>
	<stop  offset="0.2809" style="stop-color:#EFCB00"/>
	<stop  offset="0.6685" style="stop-color:#D99544"/>
	<stop  offset="0.8876" style="stop-color:#CD6F3C"/>
	<stop  offset="1" style="stop-color:#C34435"/>
</linearGradient>
<path style="fill:url(#SVGID_4_);" d="M147.781,141.608c-3.926,0-6.988,1.778-8.855,5.142c-1.652,2.975-2.456,7.476-2.456,13.758
	c0,6.365,0.804,10.906,2.456,13.88c1.867,3.364,4.93,5.142,8.855,5.142c4.004,0,7.108-1.777,8.978-5.14
	c0.001,0,0.001-0.001,0.001-0.001c1.652-2.977,2.456-7.517,2.456-13.88c0-6.204-0.825-10.688-2.524-13.709
	C154.78,143.403,151.699,141.608,147.781,141.608z M152.389,171.96c-0.988,1.777-2.409,2.569-4.607,2.569
	c-2.115,0-3.498-0.792-4.484-2.569c-0.834-1.5-1.827-4.706-1.827-11.453c0-6.646,0.993-9.83,1.827-11.331
	c0.986-1.776,2.369-2.569,4.484-2.569c2.12,0,3.524,0.815,4.553,2.643c0.858,1.527,1.882,4.719,1.882,11.257
	C154.216,167.252,153.223,170.458,152.389,171.96z"/>
<linearGradient id="SVGID_5_" gradientUnits="userSpaceOnUse" x1="23.4326" y1="10.5063" x2="496.0824" y2="482.5797">
	<stop  offset="0" style="stop-color:#FEF050"/>
	<stop  offset="0.0348" style="stop-color:#FAE73D"/>
	<stop  offset="0.0935" style="stop-color:#F5DB22"/>
	<stop  offset="0.1536" style="stop-color:#F2D20F"/>
	<stop  offset="0.2152" style="stop-color:#F0CD04"/>
	<stop  offset="0.2809" style="stop-color:#EFCB00"/>
	<stop  offset="0.6685" style="stop-color:#D99544"/>
	<stop  offset="0.8876" style="stop-color:#CD6F3C"/>
	<stop  offset="1" style="stop-color:#C34435"/>
</linearGradient>
<path style="fill:url(#SVGID_5_);" d="M213.341,229.057c7.586,0,13.62-2.559,17.934-7.607c4.215-4.932,6.352-12.107,6.352-21.328
	c0-9.138-2.137-16.272-6.352-21.207c-4.316-5.047-10.35-7.606-17.934-7.606c-7.495,0-13.503,2.533-17.855,7.527
	c-4.266,4.895-6.429,12.016-6.429,21.163c0,9.305,2.137,16.522,6.352,21.451C199.721,226.498,205.754,229.057,213.341,229.057z
	 M199.255,182.122c3.408-3.911,8.016-5.812,14.086-5.812c6.141,0,10.764,1.916,14.132,5.854c3.42,4.003,5.153,10.045,5.153,17.958
	c0,7.996-1.733,14.079-5.152,18.08c-3.367,3.94-7.99,5.855-14.133,5.855c-6.144,0-10.766-1.915-14.131-5.854
	c-0.001,0-0.001-0.001-0.001-0.001c-3.419-3.999-5.152-10.123-5.152-18.202C194.057,192.095,195.806,186.08,199.255,182.122z"/>
<linearGradient id="SVGID_6_" gradientUnits="userSpaceOnUse" x1="23.4246" y1="10.5144" x2="496.0743" y2="482.5877">
	<stop  offset="0" style="stop-color:#FEF050"/>
	<stop  offset="0.0348" style="stop-color:#FAE73D"/>
	<stop  offset="0.0935" style="stop-color:#F5DB22"/>
	<stop  offset="0.1536" style="stop-color:#F2D20F"/>
	<stop  offset="0.2152" style="stop-color:#F0CD04"/>
	<stop  offset="0.2809" style="stop-color:#EFCB00"/>
	<stop  offset="0.6685" style="stop-color:#D99544"/>
	<stop  offset="0.8876" style="stop-color:#CD6F3C"/>
	<stop  offset="1" style="stop-color:#C34435"/>
</linearGradient>
<path style="fill:url(#SVGID_6_);" d="M213.341,219.144c3.911,0,6.989-1.769,8.902-5.114c0,0,0.001-0.001,0.001-0.001
	c1.703-2.982,2.531-7.531,2.531-13.907c0-6.203-0.825-10.687-2.523-13.71c-1.912-3.395-4.993-5.189-8.911-5.189
	s-6.999,1.795-8.909,5.191c-1.699,3.021-2.524,7.505-2.524,13.708c0,6.376,0.828,10.926,2.532,13.908
	C206.353,217.375,209.43,219.144,213.341,219.144z M208.789,188.865c1.028-1.827,2.432-2.642,4.552-2.642s3.525,0.815,4.553,2.641
	c0.858,1.528,1.882,4.721,1.882,11.259c0,6.732-1.018,9.929-1.872,11.426c-1.027,1.795-2.435,2.596-4.562,2.596
	s-3.534-0.8-4.56-2.596c-0.855-1.495-1.874-4.692-1.874-11.426C206.907,193.584,207.931,190.391,208.789,188.865z"/>
<linearGradient id="SVGID_7_" gradientUnits="userSpaceOnUse" x1="16.8746" y1="17.0724" x2="489.5244" y2="489.1457">
	<stop  offset="0" style="stop-color:#FEF050"/>
	<stop  offset="0.0348" style="stop-color:#FAE73D"/>
	<stop  offset="0.0935" style="stop-color:#F5DB22"/>
	<stop  offset="0.1536" style="stop-color:#F2D20F"/>
	<stop  offset="0.2152" style="stop-color:#F0CD04"/>
	<stop  offset="0.2809" style="stop-color:#EFCB00"/>
	<stop  offset="0.6685" style="stop-color:#D99544"/>
	<stop  offset="0.8876" style="stop-color:#CD6F3C"/>
	<stop  offset="1" style="stop-color:#C34435"/>
</linearGradient>
<path style="fill:url(#SVGID_7_);" d="M157.492,228.403c1.522,0,3.033-0.454,4.49-1.348c0.001-0.001,0.003-0.002,0.005-0.003
	c1.423-0.878,2.619-2.17,3.543-3.812l44.539-76.965c1.041-1.771,1.569-3.597,1.569-5.429c0-2.296-0.836-4.315-2.419-5.84
	c-1.58-1.519-3.46-2.29-5.589-2.29c-1.524,0-3.036,0.454-4.493,1.351c-1.42,0.875-2.617,2.167-3.545,3.814l-44.54,76.965
	c-1.041,1.77-1.568,3.597-1.568,5.429c0,2.298,0.837,4.318,2.42,5.841C153.483,227.633,155.363,228.403,157.492,228.403z
	 M155.372,217.365l44.563-77.006c0.521-0.925,1.135-1.61,1.823-2.035c0.666-0.409,1.278-0.608,1.872-0.608
	c0.814,0,1.489,0.284,2.121,0.892c0.613,0.59,0.887,1.281,0.887,2.238c0,0.941-0.288,1.888-0.889,2.909l-44.562,77.007
	c-0.519,0.921-1.133,1.606-1.825,2.034c-0.666,0.408-1.277,0.607-1.87,0.607c-0.814,0-1.489-0.284-2.122-0.893
	c-0.612-0.589-0.886-1.279-0.886-2.237C154.484,219.332,154.771,218.385,155.372,217.365z"/>
</svg>
