<?xml version="1.0" encoding="iso-8859-1"?>
<!-- Generator: Adobe Illustrator 22.0.1, SVG Export Plug-In . SVG Version: 6.00 Build 0)  -->
<svg version="1.1" id="_x35_0" xmlns="http://www.w3.org/2000/svg" xmlns:xlink="http://www.w3.org/1999/xlink" x="0px" y="0px"
	 viewBox="0 0 512 512" style="enable-background:new 0 0 512 512;" xml:space="preserve">
<linearGradient id="SVGID_1_" gradientUnits="userSpaceOnUse" x1="60.0079" y1="4.5848" x2="508.0078" y2="446.5848">
	<stop  offset="0" style="stop-color:#FEF050"/>
	<stop  offset="0.0348" style="stop-color:#FAE73D"/>
	<stop  offset="0.0935" style="stop-color:#F5DB22"/>
	<stop  offset="0.1536" style="stop-color:#F2D20F"/>
	<stop  offset="0.2152" style="stop-color:#F0CD04"/>
	<stop  offset="0.2809" style="stop-color:#EFCB00"/>
	<stop  offset="0.6685" style="stop-color:#D99544"/>
	<stop  offset="0.8876" style="stop-color:#CD6F3C"/>
	<stop  offset="1" style="stop-color:#C34435"/>
</linearGradient>
<path style="fill:url(#SVGID_1_);" d="M436.06,103.372h-50.745c-1.381,0-2.5,1.119-2.5,2.5s1.119,2.5,2.5,2.5h48.245v295.256
	H193.612c-1.381,0-2.5,1.119-2.5,2.5s1.119,2.5,2.5,2.5H436.06c1.381,0,2.5-1.119,2.5-2.5V105.872
	C438.56,104.491,437.44,103.372,436.06,103.372z"/>
<linearGradient id="SVGID_2_" gradientUnits="userSpaceOnUse" x1="-0.5712" y1="65.9862" x2="447.4288" y2="507.9862">
	<stop  offset="0" style="stop-color:#FEF050"/>
	<stop  offset="0.0348" style="stop-color:#FAE73D"/>
	<stop  offset="0.0935" style="stop-color:#F5DB22"/>
	<stop  offset="0.1536" style="stop-color:#F2D20F"/>
	<stop  offset="0.2152" style="stop-color:#F0CD04"/>
	<stop  offset="0.2809" style="stop-color:#EFCB00"/>
	<stop  offset="0.6685" style="stop-color:#D99544"/>
	<stop  offset="0.8876" style="stop-color:#CD6F3C"/>
	<stop  offset="1" style="stop-color:#C34435"/>
</linearGradient>
<path style="fill:url(#SVGID_2_);" d="M73.863,185.821c-0.02,0.029-0.032,0.063-0.051,0.093c-0.066,0.108-0.13,0.218-0.179,0.335
	c-0.02,0.047-0.029,0.099-0.046,0.147c-0.036,0.105-0.075,0.209-0.097,0.32c-0.033,0.162-0.05,0.327-0.05,0.494v218.917
	c0,1.381,1.119,2.5,2.5,2.5h51.72c1.381,0,2.5-1.119,2.5-2.5s-1.119-2.5-2.5-2.5H78.44V189.711h16.622c1.381,0,2.5-1.119,2.5-2.5
	s-1.119-2.5-2.5-2.5H81.976l72.805-72.804v72.804h-23.169c-1.381,0-2.5,1.119-2.5,2.5s1.119,2.5,2.5,2.5h25.669
	c1.381,0,2.5-1.119,2.5-2.5v-78.839h148.323c1.381,0,2.5-1.119,2.5-2.5s-1.119-2.5-2.5-2.5H157.28c-0.167,0-0.333,0.017-0.494,0.05
	c-0.112,0.022-0.218,0.062-0.324,0.099c-0.047,0.016-0.096,0.025-0.142,0.044c-0.118,0.049-0.228,0.114-0.337,0.18
	c-0.03,0.019-0.063,0.031-0.093,0.05c-0.137,0.092-0.265,0.196-0.38,0.312l-81.335,81.334
	C74.059,185.557,73.955,185.685,73.863,185.821z"/>
<linearGradient id="SVGID_3_" gradientUnits="userSpaceOnUse" x1="-56.6037" y1="122.7793" x2="391.3963" y2="564.7793">
	<stop  offset="0" style="stop-color:#FEF050"/>
	<stop  offset="0.0348" style="stop-color:#FAE73D"/>
	<stop  offset="0.0935" style="stop-color:#F5DB22"/>
	<stop  offset="0.1536" style="stop-color:#F2D20F"/>
	<stop  offset="0.2152" style="stop-color:#F0CD04"/>
	<stop  offset="0.2809" style="stop-color:#EFCB00"/>
	<stop  offset="0.6685" style="stop-color:#D99544"/>
	<stop  offset="0.8876" style="stop-color:#CD6F3C"/>
	<stop  offset="1" style="stop-color:#C34435"/>
</linearGradient>
<path style="fill:url(#SVGID_3_);" d="M184.8,313.654c2.069-2.018,2.801-4.979,1.907-7.728c-0.893-2.749-3.225-4.715-6.085-5.13
	c-1.376-0.214-2.635,0.747-2.833,2.114c-0.199,1.366,0.748,2.635,2.114,2.833c0.978,0.143,1.743,0.788,2.049,1.728
	c0.305,0.94,0.064,1.913-0.643,2.603l-13.345,13.008c-1.777,1.731-2.588,4.226-2.168,6.673l3.15,18.367
	c0.167,0.974-0.211,1.902-1.01,2.482c-0.8,0.581-1.799,0.654-2.674,0.193l-16.494-8.671c-2.196-1.155-4.819-1.157-7.016-0.001
	l-16.495,8.672c-0.876,0.46-1.874,0.387-2.674-0.193c-0.799-0.58-1.177-1.509-1.01-2.482l3.15-18.367
	c0.42-2.447-0.391-4.941-2.168-6.673l-13.345-13.008c-0.707-0.689-0.947-1.662-0.643-2.603c0.306-0.939,1.071-1.585,2.049-1.728
	l18.442-2.68c2.455-0.356,4.577-1.897,5.677-4.124l8.247-16.711c0.437-0.886,1.287-1.414,2.275-1.414
	c0.988-0.001,1.84,0.528,2.276,1.414l8.247,16.711c0.61,1.238,2.11,1.745,3.349,1.136c1.238-0.611,1.746-2.11,1.136-3.349
	l-8.248-16.711c-1.279-2.592-3.87-4.202-6.761-4.201c-2.89,0-5.479,1.609-6.759,4.201l-8.246,16.711
	c-0.371,0.75-1.085,1.27-1.912,1.39l-18.442,2.68c-2.86,0.415-5.191,2.381-6.085,5.13s-0.162,5.71,1.907,7.728l13.345,13.008
	c0.599,0.583,0.871,1.424,0.73,2.247l-3.15,18.367c-0.489,2.85,0.66,5.675,2.999,7.373c1.321,0.961,2.867,1.448,4.424,1.448
	c1.198,0,2.402-0.289,3.515-0.874l16.496-8.673c0.738-0.389,1.621-0.388,2.361,0.001l16.495,8.672
	c2.557,1.345,5.6,1.124,7.938-0.574s3.488-4.523,2.999-7.373l-3.15-18.367c-0.141-0.823,0.132-1.664,0.73-2.247L184.8,313.654z"/>
<linearGradient id="SVGID_4_" gradientUnits="userSpaceOnUse" x1="-1.981" y1="67.4151" x2="446.019" y2="509.4151">
	<stop  offset="0" style="stop-color:#FEF050"/>
	<stop  offset="0.0348" style="stop-color:#FAE73D"/>
	<stop  offset="0.0935" style="stop-color:#F5DB22"/>
	<stop  offset="0.1536" style="stop-color:#F2D20F"/>
	<stop  offset="0.2152" style="stop-color:#F0CD04"/>
	<stop  offset="0.2809" style="stop-color:#EFCB00"/>
	<stop  offset="0.6685" style="stop-color:#D99544"/>
	<stop  offset="0.8876" style="stop-color:#CD6F3C"/>
	<stop  offset="1" style="stop-color:#C34435"/>
</linearGradient>
<path style="fill:url(#SVGID_4_);" d="M295.538,313.654c2.07-2.017,2.801-4.978,1.908-7.727s-3.225-4.716-6.086-5.131
	c-1.375-0.214-2.635,0.748-2.833,2.114c-0.199,1.366,0.748,2.635,2.114,2.833c0.978,0.143,1.744,0.788,2.049,1.729
	c0.306,0.939,0.065,1.911-0.643,2.602l-13.345,13.008c-1.776,1.731-2.587,4.226-2.167,6.673l3.15,18.366
	c0.167,0.975-0.211,1.903-1.011,2.484c-0.799,0.581-1.798,0.651-2.673,0.192l-16.494-8.671c-2.197-1.158-4.821-1.157-7.017-0.001
	l-16.495,8.672c-0.875,0.46-1.874,0.388-2.673-0.192c-0.8-0.581-1.178-1.51-1.011-2.483l3.15-18.367
	c0.42-2.447-0.391-4.941-2.167-6.673l-13.345-13.008c-0.708-0.69-0.948-1.662-0.643-2.602c0.305-0.94,1.071-1.586,2.049-1.729
	l18.441-2.68c2.457-0.356,4.579-1.898,5.677-4.124l8.246-16.711c0.438-0.886,1.289-1.414,2.277-1.414s1.84,0.528,2.276,1.414
	l8.247,16.711c0.61,1.238,2.11,1.745,3.349,1.136c1.238-0.611,1.746-2.11,1.136-3.349l-8.248-16.711
	c-1.279-2.592-3.869-4.201-6.76-4.201s-5.48,1.609-6.761,4.201l-8.247,16.712c-0.369,0.749-1.084,1.269-1.911,1.389l-18.441,2.68
	c-2.861,0.415-5.193,2.382-6.086,5.131s-0.162,5.71,1.908,7.727l13.345,13.008c0.598,0.583,0.871,1.423,0.729,2.247l-3.15,18.368
	c-0.488,2.849,0.661,5.675,3,7.373c1.321,0.96,2.867,1.447,4.423,1.447c1.198,0,2.402-0.289,3.515-0.874l16.496-8.673
	c0.74-0.389,1.622-0.39,2.362,0.001l16.495,8.672c2.556,1.345,5.599,1.126,7.938-0.573c2.339-1.698,3.488-4.524,3-7.374
	l-3.15-18.367c-0.142-0.824,0.132-1.664,0.729-2.247L295.538,313.654z"/>
<linearGradient id="SVGID_5_" gradientUnits="userSpaceOnUse" x1="52.642" y1="12.0507" x2="500.642" y2="454.0507">
	<stop  offset="0" style="stop-color:#FEF050"/>
	<stop  offset="0.0348" style="stop-color:#FAE73D"/>
	<stop  offset="0.0935" style="stop-color:#F5DB22"/>
	<stop  offset="0.1536" style="stop-color:#F2D20F"/>
	<stop  offset="0.2152" style="stop-color:#F0CD04"/>
	<stop  offset="0.2809" style="stop-color:#EFCB00"/>
	<stop  offset="0.6685" style="stop-color:#D99544"/>
	<stop  offset="0.8876" style="stop-color:#CD6F3C"/>
	<stop  offset="1" style="stop-color:#C34435"/>
</linearGradient>
<path style="fill:url(#SVGID_5_);" d="M332.097,305.744l18.442-2.68c2.455-0.356,4.577-1.897,5.677-4.124l8.246-16.711
	c0.438-0.886,1.289-1.414,2.277-1.414s1.839,0.528,2.275,1.414l8.247,16.711c0.611,1.238,2.109,1.745,3.349,1.136
	c1.238-0.611,1.746-2.11,1.136-3.349l-8.247-16.711c-1.279-2.592-3.869-4.201-6.759-4.201c-0.001,0-0.001,0-0.001,0
	c-2.891,0-5.48,1.609-6.761,4.201l-8.246,16.711c-0.371,0.75-1.085,1.27-1.912,1.39l-18.442,2.68
	c-2.86,0.415-5.192,2.381-6.085,5.13c-0.894,2.749-0.162,5.71,1.907,7.728l13.345,13.008c0.599,0.583,0.871,1.424,0.73,2.247
	l-3.15,18.367c-0.489,2.85,0.66,5.675,2.999,7.373c1.321,0.961,2.867,1.448,4.424,1.448c1.198,0,2.402-0.289,3.515-0.874
	l16.496-8.673c0.738-0.389,1.621-0.388,2.361,0.001l16.495,8.672c2.558,1.345,5.601,1.124,7.938-0.574
	c2.339-1.698,3.488-4.523,2.999-7.373l-3.15-18.367c-0.141-0.823,0.132-1.664,0.73-2.247l13.345-13.008
	c2.069-2.018,2.801-4.979,1.907-7.728s-3.225-4.715-6.085-5.13c-1.376-0.214-2.635,0.747-2.833,2.114
	c-0.199,1.366,0.748,2.635,2.114,2.833c0.978,0.143,1.743,0.788,2.049,1.728c0.305,0.94,0.064,1.913-0.643,2.603l-13.345,13.008
	c-1.777,1.731-2.588,4.226-2.168,6.673l3.15,18.367c0.167,0.974-0.211,1.902-1.01,2.482c-0.8,0.581-1.799,0.654-2.674,0.193
	l-16.494-8.671c-2.196-1.155-4.819-1.157-7.016-0.001l-16.495,8.672c-0.875,0.46-1.873,0.387-2.674-0.193
	c-0.799-0.58-1.177-1.509-1.01-2.482l3.15-18.367c0.42-2.447-0.391-4.941-2.168-6.673l-13.345-13.008
	c-0.707-0.689-0.947-1.662-0.643-2.603C330.354,306.532,331.119,305.887,332.097,305.744z"/>
<linearGradient id="SVGID_6_" gradientUnits="userSpaceOnUse" x1="18.3462" y1="46.812" x2="466.3462" y2="488.812">
	<stop  offset="0" style="stop-color:#FEF050"/>
	<stop  offset="0.0348" style="stop-color:#FAE73D"/>
	<stop  offset="0.0935" style="stop-color:#F5DB22"/>
	<stop  offset="0.1536" style="stop-color:#F2D20F"/>
	<stop  offset="0.2152" style="stop-color:#F0CD04"/>
	<stop  offset="0.2809" style="stop-color:#EFCB00"/>
	<stop  offset="0.6685" style="stop-color:#D99544"/>
	<stop  offset="0.8876" style="stop-color:#CD6F3C"/>
	<stop  offset="1" style="stop-color:#C34435"/>
</linearGradient>
<path style="fill:url(#SVGID_6_);" d="M201.812,251.266l16.494,8.672c2.557,1.345,5.6,1.124,7.938-0.574s3.488-4.523,2.999-7.373
	l-3.15-18.367c-0.141-0.823,0.132-1.663,0.73-2.247l13.345-13.008c2.069-2.017,2.801-4.978,1.907-7.727
	c-0.893-2.749-3.225-4.716-6.085-5.131c-1.376-0.214-2.635,0.748-2.833,2.114c-0.199,1.366,0.748,2.635,2.114,2.833
	c0.978,0.143,1.743,0.788,2.049,1.728c0.306,0.94,0.065,1.913-0.643,2.603l-13.345,13.008c-1.777,1.733-2.587,4.228-2.168,6.673
	l3.15,18.367c0.167,0.974-0.211,1.902-1.01,2.482c-0.8,0.583-1.798,0.655-2.674,0.193l-16.494-8.672
	c-2.197-1.154-4.82-1.154-7.016,0l-16.495,8.672c-0.875,0.461-1.874,0.387-2.674-0.193c-0.799-0.58-1.177-1.509-1.01-2.482
	l3.15-18.367c0.419-2.445-0.391-4.939-2.168-6.673l-13.345-13.008c-0.707-0.689-0.947-1.662-0.643-2.602
	c0.306-0.939,1.072-1.586,2.05-1.729l18.441-2.68c2.455-0.356,4.577-1.897,5.677-4.123l8.247-16.711
	c0.438-0.886,1.288-1.415,2.276-1.415s1.839,0.529,2.275,1.415l8.248,16.711c0.611,1.238,2.109,1.745,3.349,1.136
	c1.238-0.611,1.746-2.11,1.136-3.349l-8.248-16.711c-1.279-2.592-3.869-4.202-6.759-4.202c-0.001,0-0.001,0-0.001,0
	c-2.891,0-5.48,1.61-6.761,4.202l-8.246,16.711c-0.37,0.749-1.085,1.269-1.912,1.389l-18.441,2.68
	c-2.861,0.415-5.193,2.382-6.086,5.131c-0.894,2.749-0.162,5.71,1.907,7.727l13.345,13.008c0.599,0.584,0.871,1.424,0.73,2.247
	l-3.15,18.367c-0.489,2.85,0.66,5.675,2.999,7.373c1.321,0.961,2.867,1.448,4.424,1.448c1.198,0,2.402-0.289,3.515-0.874
	l16.495-8.672C200.189,250.877,201.072,250.877,201.812,251.266z"/>
<linearGradient id="SVGID_7_" gradientUnits="userSpaceOnUse" x1="72.9693" y1="-8.5526" x2="520.9693" y2="433.4474">
	<stop  offset="0" style="stop-color:#FEF050"/>
	<stop  offset="0.0348" style="stop-color:#FAE73D"/>
	<stop  offset="0.0935" style="stop-color:#F5DB22"/>
	<stop  offset="0.1536" style="stop-color:#F2D20F"/>
	<stop  offset="0.2152" style="stop-color:#F0CD04"/>
	<stop  offset="0.2809" style="stop-color:#EFCB00"/>
	<stop  offset="0.6685" style="stop-color:#D99544"/>
	<stop  offset="0.8876" style="stop-color:#CD6F3C"/>
	<stop  offset="1" style="stop-color:#C34435"/>
</linearGradient>
<path style="fill:url(#SVGID_7_);" d="M312.551,251.266l16.495,8.672c1.112,0.585,2.316,0.874,3.515,0.874
	c1.557,0,3.103-0.488,4.424-1.448c2.339-1.698,3.488-4.523,2.999-7.373l-3.15-18.367c-0.141-0.823,0.132-1.663,0.73-2.247
	l13.345-13.008c2.069-2.017,2.801-4.978,1.907-7.727c-0.893-2.749-3.225-4.716-6.086-5.131c-1.375-0.214-2.635,0.748-2.833,2.114
	c-0.199,1.366,0.748,2.635,2.114,2.833c0.978,0.143,1.744,0.789,2.05,1.729c0.305,0.939,0.064,1.912-0.643,2.602l-13.345,13.008
	c-1.777,1.733-2.587,4.228-2.168,6.673l3.15,18.367c0.167,0.974-0.211,1.902-1.01,2.482c-0.8,0.583-1.798,0.653-2.674,0.193
	l-16.495-8.672c-2.197-1.154-4.82-1.154-7.016,0l-16.494,8.672c-0.876,0.461-1.874,0.387-2.674-0.193
	c-0.799-0.58-1.177-1.509-1.01-2.482l3.15-18.367c0.419-2.445-0.391-4.939-2.168-6.673l-13.345-13.008
	c-0.708-0.689-0.948-1.662-0.643-2.603c0.306-0.939,1.071-1.585,2.049-1.728l18.442-2.68c2.456-0.356,4.578-1.898,5.676-4.123
	l8.248-16.711c0.437-0.886,1.287-1.415,2.275-1.415s1.839,0.528,2.276,1.415l8.247,16.711c0.61,1.238,2.11,1.745,3.349,1.136
	c1.238-0.611,1.746-2.11,1.136-3.349l-8.247-16.711c-1.28-2.593-3.871-4.203-6.762-4.202c-2.89,0-5.479,1.61-6.759,4.202
	l-8.248,16.712c-0.369,0.748-1.083,1.268-1.91,1.388l-18.442,2.68c-2.86,0.415-5.192,2.382-6.085,5.131
	c-0.894,2.749-0.162,5.71,1.907,7.727l13.345,13.008c0.599,0.584,0.871,1.424,0.73,2.247l-3.15,18.367
	c-0.489,2.85,0.66,5.675,2.999,7.373c2.338,1.7,5.381,1.919,7.938,0.574l16.494-8.672
	C310.928,250.877,311.811,250.877,312.551,251.266z"/>
</svg>
