<svg xmlns="http://www.w3.org/2000/svg" viewBox="0 0 32 32"><title>Artboard-33</title><g id="Home_Rotate" data-name="Home Rotate"><path d="M16,3A13.013,13.013,0,0,0,5.325,8.593L4.986,6.882a.5.5,0,1,0-.981.193l.582,2.944a.512.512,0,0,0,.588.393L8.118,9.83a.5.5,0,1,0-.2-.98L6.137,9.2A11.972,11.972,0,1,1,4,16a.5.5,0,0,0-1,0A13,13,0,1,0,16,3Z"/><path d="M23.916,14.777a.5.5,0,0,0-.139-.693l-7.5-5a.5.5,0,0,0-.554,0l-7.5,5a.5.5,0,0,0,.554.832L16,10.1l7.223,4.815A.5.5,0,0,0,23.916,14.777Z"/><path d="M10.5,15a.5.5,0,0,0-.5.5v6A1.5,1.5,0,0,0,11.5,23h9A1.5,1.5,0,0,0,22,21.5v-6a.5.5,0,0,0-1,0v6a.5.5,0,0,1-.5.5H18V19a2,2,0,0,0-4,0v3H11.5a.5.5,0,0,1-.5-.5v-6A.5.5,0,0,0,10.5,15ZM15,19a1,1,0,0,1,2,0v3H15Z"/></g></svg>