<svg xmlns="http://www.w3.org/2000/svg" viewBox="0 0 32 32"><title>Artboard-18</title><g id="Home_Size" data-name="Home Size"><path d="M7.818,11.886,16,5.148l8.183,6.738A.492.492,0,0,0,24.5,12a.5.5,0,0,0,.317-.886l-8.5-7a.5.5,0,0,0-.636,0l-8.5,7a.5.5,0,1,0,.636.772Z"/><path d="M9.5,12a.5.5,0,0,0-.5.5v6A2.5,2.5,0,0,0,11.5,21h9A2.5,2.5,0,0,0,23,18.5v-6a.5.5,0,0,0-1,0v6A1.5,1.5,0,0,1,20.5,20H19V16.5A2.5,2.5,0,0,0,16.5,14h-1A2.5,2.5,0,0,0,13,16.5V20H11.5A1.5,1.5,0,0,1,10,18.5v-6A.5.5,0,0,0,9.5,12ZM14,16.5A1.5,1.5,0,0,1,15.5,15h1A1.5,1.5,0,0,1,18,16.5V20H14Z"/><path d="M27.853,25.146l-2-2a.5.5,0,0,0-.708.708L26.293,25H5.707l1.147-1.146a.5.5,0,0,0-.708-.708l-2,2a.5.5,0,0,0,0,.708l2,2a.5.5,0,1,0,.708-.708L5.707,26H26.293l-1.147,1.146a.5.5,0,0,0,.708.708l2-2A.5.5,0,0,0,27.853,25.146Z"/></g></svg>