<?xml version="1.0" encoding="iso-8859-1"?>
<!-- Generator: Adobe Illustrator 22.0.1, SVG Export Plug-In . SVG Version: 6.00 Build 0)  -->
<svg version="1.1" id="_x35_0" xmlns="http://www.w3.org/2000/svg" xmlns:xlink="http://www.w3.org/1999/xlink" x="0px" y="0px"
	 viewBox="0 0 512 512" style="enable-background:new 0 0 512 512;" xml:space="preserve">
<linearGradient id="SVGID_1_" gradientUnits="userSpaceOnUse" x1="21.1635" y1="27.022" x2="476.5212" y2="484.1088">
	<stop  offset="0" style="stop-color:#FEF050"/>
	<stop  offset="0.0348" style="stop-color:#FAE73D"/>
	<stop  offset="0.0935" style="stop-color:#F5DB22"/>
	<stop  offset="0.1536" style="stop-color:#F2D20F"/>
	<stop  offset="0.2152" style="stop-color:#F0CD04"/>
	<stop  offset="0.2809" style="stop-color:#EFCB00"/>
	<stop  offset="0.6685" style="stop-color:#D99544"/>
	<stop  offset="0.8876" style="stop-color:#CD6F3C"/>
	<stop  offset="1" style="stop-color:#C34435"/>
</linearGradient>
<path style="fill:url(#SVGID_1_);" d="M374.049,146.349c1.381,0,2.5-1.119,2.5-2.5V88.293c0-15.234-12.394-27.627-27.627-27.627
	h-22.877c-1.381,0-2.5,1.119-2.5,2.5s1.119,2.5,2.5,2.5h22.877c12.477,0,22.627,10.15,22.627,22.627V98.67H140.451V88.293
	c0-12.477,10.151-22.627,22.627-22.627H256c1.381,0,2.5-1.119,2.5-2.5s-1.119-2.5-2.5-2.5h-92.922
	c-15.234,0-27.627,12.394-27.627,27.627v348.914c0,15.234,12.394,27.627,27.627,27.627h185.844
	c15.234,0,27.627-12.394,27.627-27.627v-225.64c0-1.381-1.119-2.5-2.5-2.5s-2.5,1.119-2.5,2.5v186.521H212.256
	c-1.381,0-2.5,1.119-2.5,2.5s1.119,2.5,2.5,2.5h159.293v34.119c0,12.477-10.151,22.627-22.627,22.627H163.078
	c-12.477,0-22.627-10.151-22.627-22.627v-34.119h33.933c1.381,0,2.5-1.119,2.5-2.5s-1.119-2.5-2.5-2.5h-33.933V103.67h231.099
	v40.179C371.549,145.23,372.668,146.349,374.049,146.349z"/>
<linearGradient id="SVGID_2_" gradientUnits="userSpaceOnUse" x1="-63.1914" y1="111.0577" x2="392.1663" y2="568.1446">
	<stop  offset="0" style="stop-color:#FEF050"/>
	<stop  offset="0.0348" style="stop-color:#FAE73D"/>
	<stop  offset="0.0935" style="stop-color:#F5DB22"/>
	<stop  offset="0.1536" style="stop-color:#F2D20F"/>
	<stop  offset="0.2152" style="stop-color:#F0CD04"/>
	<stop  offset="0.2809" style="stop-color:#EFCB00"/>
	<stop  offset="0.6685" style="stop-color:#D99544"/>
	<stop  offset="0.8876" style="stop-color:#CD6F3C"/>
	<stop  offset="1" style="stop-color:#C34435"/>
</linearGradient>
<path style="fill:url(#SVGID_2_);" d="M281.469,431.461c0-14.044-11.425-25.469-25.469-25.469s-25.469,11.425-25.469,25.469
	c0,14.043,11.425,25.469,25.469,25.469S281.469,445.505,281.469,431.461z M235.531,431.461c0-11.287,9.182-20.469,20.469-20.469
	s20.469,9.183,20.469,20.469S267.287,451.93,256,451.93S235.531,442.748,235.531,431.461z"/>
<linearGradient id="SVGID_3_" gradientUnits="userSpaceOnUse" x1="27.099" y1="21.1089" x2="482.4567" y2="478.1958">
	<stop  offset="0" style="stop-color:#FEF050"/>
	<stop  offset="0.0348" style="stop-color:#FAE73D"/>
	<stop  offset="0.0935" style="stop-color:#F5DB22"/>
	<stop  offset="0.1536" style="stop-color:#F2D20F"/>
	<stop  offset="0.2152" style="stop-color:#F0CD04"/>
	<stop  offset="0.2809" style="stop-color:#EFCB00"/>
	<stop  offset="0.6685" style="stop-color:#D99544"/>
	<stop  offset="0.8876" style="stop-color:#CD6F3C"/>
	<stop  offset="1" style="stop-color:#C34435"/>
</linearGradient>
<path style="fill:url(#SVGID_3_);" d="M359.449,232.645c-0.695-3.968-4.067-6.682-7.329-9.306c-2.26-1.819-4.597-3.699-5.263-5.529
	c-0.691-1.899-0.104-4.89,0.464-7.782c0.798-4.061,1.623-8.26-0.353-11.675c-1.997-3.45-6.072-4.836-10.012-6.175
	c-2.769-0.941-5.632-1.915-6.907-3.432c-1.282-1.526-1.748-4.523-2.198-7.42c-0.638-4.104-1.297-8.348-4.338-10.902
	c-3.032-2.546-7.322-2.463-11.464-2.382c-2.937,0.057-5.978,0.117-7.714-0.889c-1.702-0.984-3.152-3.625-4.554-6.179
	c-2.009-3.659-4.087-7.442-7.851-8.812c-3.691-1.345-7.668,0.198-11.517,1.688c-2.759,1.068-5.609,2.172-7.623,1.822
	c-1.896-0.333-4.144-2.298-6.317-4.199c-3.159-2.763-6.424-5.62-10.475-5.62s-7.316,2.857-10.475,5.62
	c-2.173,1.901-4.42,3.867-6.317,4.199c-2.009,0.348-4.864-0.753-7.623-1.822c-3.848-1.49-7.827-3.031-11.517-1.688
	c-3.764,1.37-5.841,5.153-7.851,8.812c-1.403,2.554-2.853,5.195-4.555,6.18c-1.195,0.692-1.604,2.221-0.912,3.416
	c0.692,1.196,2.221,1.603,3.416,0.912c2.909-1.684,4.701-4.946,6.434-8.101c1.564-2.848,3.181-5.793,5.178-6.52
	c1.924-0.701,5.013,0.496,8,1.652c3.397,1.316,6.913,2.678,10.292,2.084c3.274-0.573,6.056-3.007,8.747-5.361
	c2.463-2.155,5.01-4.383,7.182-4.383s4.719,2.228,7.182,4.383c2.691,2.354,5.473,4.788,8.747,5.361
	c3.379,0.591,6.893-0.769,10.291-2.084c2.986-1.157,6.072-2.354,8-1.652c1.997,0.727,3.614,3.672,5.178,6.521
	c1.732,3.155,3.524,6.417,6.433,8.101c2.943,1.703,6.692,1.63,10.315,1.56c3.224-0.062,6.556-0.128,8.151,1.212
	c1.604,1.347,2.117,4.648,2.613,7.841c0.556,3.576,1.13,7.273,3.31,9.869c2.172,2.586,5.707,3.788,9.125,4.95
	c3.067,1.043,6.238,2.121,7.294,3.946c1.036,1.79,0.395,5.052-0.225,8.208c-0.7,3.563-1.424,7.249-0.256,10.456
	c1.144,3.14,4.033,5.465,6.827,7.714c2.541,2.044,5.167,4.158,5.538,6.272c0.349,1.993-1.357,4.812-3.006,7.538
	c-1.896,3.133-3.856,6.373-3.856,9.834c0,3.461,1.96,6.701,3.856,9.834c1.649,2.727,3.355,5.546,3.006,7.539
	c-0.37,2.114-2.997,4.228-5.538,6.272c-2.794,2.249-5.684,4.573-6.827,7.714c-1.167,3.207-0.444,6.892,0.256,10.456
	c0.62,3.155,1.261,6.417,0.225,8.207c-1.056,1.825-4.227,2.903-7.294,3.946c-3.418,1.162-6.953,2.364-9.125,4.949
	c-2.18,2.596-2.754,6.293-3.31,9.869c-0.496,3.192-1.009,6.494-2.613,7.841c-1.595,1.34-4.927,1.275-8.151,1.212
	c-3.622-0.07-7.372-0.144-10.314,1.56c-2.909,1.684-4.701,4.946-6.434,8.101c-1.564,2.848-3.181,5.793-5.178,6.52
	c-1.922,0.701-5.014-0.496-8-1.652c-3.397-1.316-6.912-2.678-10.292-2.084c-3.274,0.573-6.056,3.007-8.747,5.361
	c-2.463,2.155-5.01,4.383-7.182,4.383s-4.719-2.228-7.182-4.383c-2.691-2.354-5.473-4.788-8.747-5.361
	c-3.382-0.595-6.894,0.768-10.291,2.084c-2.987,1.158-6.073,2.354-8,1.653c-1.997-0.727-3.614-3.672-5.178-6.521
	c-1.732-3.155-3.524-6.417-6.433-8.101c-2.943-1.703-6.692-1.631-10.315-1.56c-3.223,0.063-6.556,0.127-8.151-1.212
	c-1.604-1.347-2.117-4.648-2.613-7.841c-0.556-3.576-1.13-7.274-3.311-9.869c-2.172-2.585-5.707-3.787-9.125-4.949
	c-3.067-1.043-6.238-2.121-7.294-3.946c-1.036-1.79-0.395-5.052,0.225-8.208c0.7-3.563,1.424-7.249,0.256-10.456
	c-1.144-3.14-4.033-5.465-6.827-7.714c-2.541-2.044-5.167-4.158-5.538-6.272c-0.349-1.993,1.357-4.812,3.006-7.538
	c1.896-3.133,3.856-6.373,3.856-9.834c0-3.461-1.96-6.701-3.856-9.833c-1.649-2.727-3.355-5.545-3.006-7.539
	c0.37-2.114,2.997-4.228,5.538-6.272c2.794-2.249,5.684-4.573,6.827-7.714c0.472-1.297-0.197-2.732-1.494-3.204
	c-1.296-0.472-2.732,0.196-3.204,1.494c-0.666,1.83-3.003,3.71-5.263,5.529c-3.261,2.624-6.633,5.338-7.328,9.305
	c-0.673,3.839,1.526,7.474,3.653,10.989c1.541,2.546,3.134,5.179,3.134,7.245c0,2.066-1.593,4.7-3.134,7.246
	c-2.127,3.515-4.326,7.149-3.653,10.989c0.695,3.968,4.067,6.682,7.329,9.306c2.26,1.819,4.597,3.699,5.263,5.529
	c0.691,1.899,0.104,4.89-0.464,7.782c-0.798,4.061-1.623,8.26,0.353,11.675c1.997,3.45,6.072,4.836,10.013,6.176
	c2.769,0.941,5.632,1.915,6.906,3.431c1.283,1.527,1.748,4.523,2.199,7.421c0.638,4.104,1.297,8.348,4.338,10.902
	c3.031,2.545,7.316,2.461,11.464,2.382c2.936-0.056,5.978-0.117,7.714,0.889c1.702,0.984,3.152,3.625,4.554,6.179
	c2.009,3.659,4.087,7.442,7.851,8.812c3.689,1.343,7.668-0.198,11.516-1.688c2.759-1.068,5.613-2.173,7.623-1.822
	c1.896,0.333,4.144,2.298,6.317,4.199c3.159,2.763,6.424,5.62,10.475,5.62s7.316-2.857,10.475-5.62
	c2.173-1.901,4.42-3.867,6.317-4.199c2.014-0.35,4.865,0.754,7.623,1.822c3.848,1.49,7.829,3.032,11.517,1.688
	c3.764-1.37,5.841-5.153,7.851-8.812c1.403-2.554,2.853-5.195,4.555-6.18c1.737-1.004,4.775-0.945,7.713-0.889
	c4.147,0.08,8.433,0.164,11.464-2.383c3.041-2.554,3.7-6.798,4.338-10.902c0.451-2.898,0.916-5.894,2.198-7.421
	c1.274-1.517,4.137-2.49,6.906-3.431c3.941-1.34,8.016-2.726,10.013-6.176c1.976-3.415,1.151-7.614,0.353-11.675
	c-0.568-2.892-1.156-5.882-0.464-7.782c0.666-1.83,3.003-3.71,5.263-5.529c3.261-2.624,6.633-5.338,7.328-9.305
	c0.672-3.839-1.526-7.474-3.653-10.989c-1.541-2.546-3.134-5.179-3.134-7.246s1.593-4.699,3.134-7.246
	C357.922,240.119,360.121,236.484,359.449,232.645z"/>
<linearGradient id="SVGID_4_" gradientUnits="userSpaceOnUse" x1="27.0991" y1="21.1089" x2="482.4567" y2="478.1957">
	<stop  offset="0" style="stop-color:#FEF050"/>
	<stop  offset="0.0348" style="stop-color:#FAE73D"/>
	<stop  offset="0.0935" style="stop-color:#F5DB22"/>
	<stop  offset="0.1536" style="stop-color:#F2D20F"/>
	<stop  offset="0.2152" style="stop-color:#F0CD04"/>
	<stop  offset="0.2809" style="stop-color:#EFCB00"/>
	<stop  offset="0.6685" style="stop-color:#D99544"/>
	<stop  offset="0.8876" style="stop-color:#CD6F3C"/>
	<stop  offset="1" style="stop-color:#C34435"/>
</linearGradient>
<path style="fill:url(#SVGID_4_);" d="M256,323.424c40.001,0,72.545-32.544,72.545-72.545S296.001,178.334,256,178.334
	s-72.545,32.543-72.545,72.545S215.999,323.424,256,323.424z M256,183.334c37.245,0,67.545,30.3,67.545,67.545
	s-30.3,67.545-67.545,67.545s-67.545-30.301-67.545-67.545S218.755,183.334,256,183.334z"/>
<linearGradient id="SVGID_5_" gradientUnits="userSpaceOnUse" x1="21.1197" y1="27.0656" x2="476.4774" y2="484.1525">
	<stop  offset="0" style="stop-color:#FEF050"/>
	<stop  offset="0.0348" style="stop-color:#FAE73D"/>
	<stop  offset="0.0935" style="stop-color:#F5DB22"/>
	<stop  offset="0.1536" style="stop-color:#F2D20F"/>
	<stop  offset="0.2152" style="stop-color:#F0CD04"/>
	<stop  offset="0.2809" style="stop-color:#EFCB00"/>
	<stop  offset="0.6685" style="stop-color:#D99544"/>
	<stop  offset="0.8876" style="stop-color:#CD6F3C"/>
	<stop  offset="1" style="stop-color:#C34435"/>
</linearGradient>
<path style="fill:url(#SVGID_5_);" d="M225.441,259.158c7.088,0,12.749-2.393,16.825-7.112c3.982-4.611,6.001-11.312,6.001-19.917
	c0-8.526-2.019-15.188-6.002-19.804c-4.077-4.718-9.738-7.11-16.824-7.11c-7.093,0-12.738,2.396-16.776,7.121
	c-3.939,4.609-5.937,11.269-5.937,19.793c0,8.603,1.998,15.301,5.938,19.908C212.702,256.762,218.346,259.158,225.441,259.158z
	 M212.465,215.585c3.088-3.613,7.333-5.37,12.976-5.37c5.647,0,9.913,1.76,13.04,5.378c3.176,3.68,4.786,9.243,4.786,16.536
	c0,7.37-1.61,12.972-4.786,16.648c-3.126,3.62-7.392,5.38-13.041,5.38c-5.645,0-9.889-1.756-12.975-5.37c0,0,0,0-0.001-0.001
	c-3.144-3.675-4.737-9.28-4.737-16.658C207.728,224.829,209.322,219.263,212.465,215.585z"/>
<linearGradient id="SVGID_6_" gradientUnits="userSpaceOnUse" x1="27.0988" y1="21.1091" x2="482.4565" y2="478.196">
	<stop  offset="0" style="stop-color:#FEF050"/>
	<stop  offset="0.0348" style="stop-color:#FAE73D"/>
	<stop  offset="0.0935" style="stop-color:#F5DB22"/>
	<stop  offset="0.1536" style="stop-color:#F2D20F"/>
	<stop  offset="0.2152" style="stop-color:#F0CD04"/>
	<stop  offset="0.2809" style="stop-color:#EFCB00"/>
	<stop  offset="0.6685" style="stop-color:#D99544"/>
	<stop  offset="0.8876" style="stop-color:#CD6F3C"/>
	<stop  offset="1" style="stop-color:#C34435"/>
</linearGradient>
<path style="fill:url(#SVGID_6_);" d="M226.985,287.728c0,2.184,0.795,4.103,2.3,5.549c1.479,1.422,3.315,2.174,5.31,2.174
	c1.447,0,2.881-0.43,4.261-1.278c0.002-0.001,0.003-0.002,0.005-0.003c1.346-0.832,2.477-2.052,3.348-3.601l41.326-71.412
	c0.982-1.671,1.48-3.396,1.48-5.127c0-2.181-0.795-4.099-2.299-5.548c-2.553-2.457-6.292-2.915-9.574-0.896
	c-1.344,0.828-2.477,2.048-3.351,3.602L228.465,282.6C227.483,284.27,226.985,285.996,226.985,287.728z M232.784,285.119
	l41.35-71.452c0.468-0.832,1.017-1.445,1.629-1.822c0.588-0.362,1.125-0.538,1.643-0.538c0.716,0,1.285,0.24,1.843,0.777
	c0.53,0.511,0.767,1.111,0.767,1.946c0,0.84-0.259,1.688-0.799,2.609l-41.35,71.453c-0.465,0.828-1.014,1.441-1.63,1.822
	c-0.589,0.361-1.126,0.537-1.642,0.537c-0.716,0-1.285-0.24-1.844-0.778c-0.529-0.509-0.766-1.109-0.766-1.946
	C231.985,286.887,232.243,286.039,232.784,285.119z"/>
<linearGradient id="SVGID_7_" gradientUnits="userSpaceOnUse" x1="33.2604" y1="14.9709" x2="488.618" y2="472.0577">
	<stop  offset="0" style="stop-color:#FEF050"/>
	<stop  offset="0.0348" style="stop-color:#FAE73D"/>
	<stop  offset="0.0935" style="stop-color:#F5DB22"/>
	<stop  offset="0.1536" style="stop-color:#F2D20F"/>
	<stop  offset="0.2152" style="stop-color:#F0CD04"/>
	<stop  offset="0.2809" style="stop-color:#EFCB00"/>
	<stop  offset="0.6685" style="stop-color:#D99544"/>
	<stop  offset="0.8876" style="stop-color:#CD6F3C"/>
	<stop  offset="1" style="stop-color:#C34435"/>
</linearGradient>
<path style="fill:url(#SVGID_7_);" d="M269.855,249.306c-3.987,4.576-6.009,11.222-6.009,19.755c0,8.677,1.998,15.413,5.937,20.021
	c4.036,4.725,9.68,7.121,16.775,7.121c7.094,0,12.738-2.396,16.776-7.122c3.939-4.609,5.937-11.307,5.937-19.906
	c0-8.522-1.998-15.182-5.938-19.794c-4.041-4.725-9.685-7.121-16.776-7.121C279.549,242.26,273.93,244.63,269.855,249.306z
	 M286.559,247.26c5.641,0,9.886,1.757,12.975,5.37c3.144,3.68,4.738,9.247,4.738,16.545c0,7.375-1.594,12.979-4.738,16.658
	c-3.088,3.613-7.333,5.37-12.976,5.37c-5.645,0-9.889-1.756-12.975-5.369c0,0,0-0.001-0.001-0.001
	c-3.143-3.676-4.737-9.319-4.737-16.771c0-7.29,1.608-12.831,4.778-16.47C276.751,249.004,280.982,247.26,286.559,247.26z"/>
<linearGradient id="SVGID_8_" gradientUnits="userSpaceOnUse" x1="21.1073" y1="27.078" x2="476.4649" y2="484.1649">
	<stop  offset="0" style="stop-color:#FEF050"/>
	<stop  offset="0.0348" style="stop-color:#FAE73D"/>
	<stop  offset="0.0935" style="stop-color:#F5DB22"/>
	<stop  offset="0.1536" style="stop-color:#F2D20F"/>
	<stop  offset="0.2152" style="stop-color:#F0CD04"/>
	<stop  offset="0.2809" style="stop-color:#EFCB00"/>
	<stop  offset="0.6685" style="stop-color:#D99544"/>
	<stop  offset="0.8876" style="stop-color:#CD6F3C"/>
	<stop  offset="1" style="stop-color:#C34435"/>
</linearGradient>
<path style="fill:url(#SVGID_8_);" d="M225.441,249.96c3.784,0,6.719-1.682,8.487-4.862c0,0,0-0.001,0.001-0.001
	c1.548-2.79,2.301-7.031,2.301-12.967c0-5.789-0.773-9.978-2.365-12.808c-1.806-3.211-4.719-4.909-8.424-4.909
	c-3.713,0-6.609,1.682-8.375,4.863c-1.548,2.788-2.301,6.992-2.301,12.853c0,5.938,0.753,10.18,2.301,12.967
	C218.832,248.278,221.728,249.96,225.441,249.96z M221.438,221.704c0.879-1.584,2.114-2.291,4.003-2.291
	c1.894,0,3.148,0.728,4.066,2.36c0.786,1.397,1.723,4.329,1.723,10.356c0,6.221-0.91,9.166-1.673,10.54
	c-0.881,1.584-2.15,2.291-4.116,2.291c-1.89,0-3.125-0.707-4.004-2.291c-0.763-1.374-1.672-4.317-1.672-10.54
	C219.765,226.001,220.674,223.078,221.438,221.704z"/>
<linearGradient id="SVGID_9_" gradientUnits="userSpaceOnUse" x1="33.253" y1="14.9782" x2="488.6106" y2="472.0651">
	<stop  offset="0" style="stop-color:#FEF050"/>
	<stop  offset="0.0348" style="stop-color:#FAE73D"/>
	<stop  offset="0.0935" style="stop-color:#F5DB22"/>
	<stop  offset="0.1536" style="stop-color:#F2D20F"/>
	<stop  offset="0.2152" style="stop-color:#F0CD04"/>
	<stop  offset="0.2809" style="stop-color:#EFCB00"/>
	<stop  offset="0.6685" style="stop-color:#D99544"/>
	<stop  offset="0.8876" style="stop-color:#CD6F3C"/>
	<stop  offset="1" style="stop-color:#C34435"/>
</linearGradient>
<path style="fill:url(#SVGID_9_);" d="M286.559,287.004c3.697,0,6.607-1.672,8.417-4.836c0,0,0,0,0,0
	c1.597-2.795,2.373-7.045,2.373-12.993c0-5.788-0.773-9.977-2.365-12.809c-1.807-3.211-4.721-4.908-8.425-4.908
	c-3.705,0-6.618,1.697-8.424,4.909c-1.591,2.83-2.365,7.02-2.365,12.808c0,5.949,0.776,10.199,2.373,12.993
	C279.951,285.332,282.861,287.004,286.559,287.004z M282.493,258.817c0.918-1.632,2.172-2.359,4.066-2.359s3.149,0.728,4.067,2.359
	c0.786,1.398,1.723,4.331,1.723,10.358c0,6.208-0.933,9.144-1.715,10.513c-0.917,1.603-2.173,2.317-4.075,2.317
	c-1.902,0-3.159-0.714-4.075-2.317c-0.782-1.369-1.714-4.304-1.714-10.513C280.77,263.147,281.707,260.215,282.493,258.817z"/>
</svg>
