<svg xmlns="http://www.w3.org/2000/svg" viewBox="0 0 32 32"><title>Artboard-6</title><g id="HP_home" data-name="HP home"><path d="M21.5,3h-11A2.5,2.5,0,0,0,8,5.5v21A2.5,2.5,0,0,0,10.5,29h11A2.5,2.5,0,0,0,24,26.5V5.5A2.5,2.5,0,0,0,21.5,3ZM9,8H23V24H9Zm1.5-4h11A1.5,1.5,0,0,1,23,5.5V7H9V5.5A1.5,1.5,0,0,1,10.5,4Zm11,24h-11A1.5,1.5,0,0,1,9,26.5V25H23v1.5A1.5,1.5,0,0,1,21.5,28Z"/><path d="M16.5,26h-1a.5.5,0,0,0,0,1h1a.5.5,0,0,0,0-1Z"/><path d="M20.5,15a.5.5,0,0,0-.5.5v5a.5.5,0,0,1-.5.5H18V18.5A1.5,1.5,0,0,0,16.5,17h-1A1.5,1.5,0,0,0,14,18.5V21H12.5a.5.5,0,0,1-.5-.5v-5a.5.5,0,0,0-1,0v5A1.5,1.5,0,0,0,12.5,22h7A1.5,1.5,0,0,0,21,20.5v-5A.5.5,0,0,0,20.5,15ZM15,21V18.5a.5.5,0,0,1,.5-.5h1a.5.5,0,0,1,.5.5V21Z"/><path d="M21.794,14.1l-5.5-4a.5.5,0,0,0-.588,0l-5.5,4a.5.5,0,1,0,.588.808L16,11.118,21.206,14.9a.5.5,0,0,0,.588-.808Z"/><circle cx="20.5" cy="5.5" r="0.5"/></g></svg>