<?xml version="1.0" encoding="UTF-8"?>
<!DOCTYPE svg PUBLIC "-//W3C//DTD SVG 1.1//EN" "http://www.w3.org/Graphics/SVG/1.1/DTD/svg11.dtd">
<!-- Creator: CorelDRAW -->
<svg xmlns="http://www.w3.org/2000/svg" xml:space="preserve" width="6.82666in" height="6.82666in" style="shape-rendering:geometricPrecision; text-rendering:geometricPrecision; image-rendering:optimizeQuality; fill-rule:evenodd; clip-rule:evenodd"
viewBox="0 0 6.82666 6.82666"
 xmlns:xlink="http://www.w3.org/1999/xlink">
 <defs>
  <style type="text/css">
   <![CDATA[
    .fil1 {fill:none}
    .fil0 {fill:#424242}
    .fil2 {fill:#FFFFFE;fill-rule:nonzero}
   ]]>
  </style>
 </defs>
 <rect class="fil0" width="6.82666" height="6.82666"/>
 <g id="Layer_x0020_1">
  <metadata id="CorelCorpID_0Corel-Layer"/>
  <g id="_377738848">
   <rect id="_377738464" class="fil1" width="6.82666" height="6.82666"/>
   <rect id="_377738872" class="fil1" x="0.853331" y="0.853331" width="5.12" height="5.12"/>
  </g>
  <path class="fil2" d="M1.06667 1.19257l0 3.86024 0.922114 0.502917 0.865705 -0.47215 -0.000185039 -0.00034252c0.0359331,-0.0195984 0.0781811,-0.016374 0.110083,0.00476772l0.991598 0.540811 0.84628 -0.461547 -0.000185039 -0.000338583c0.0359213,-0.0195906 0.0781496,-0.0163701 0.110047,0.00475197l0.847866 0.462409 0 -3.86024 -0.906843 -0.494579 -0.846276 0.461547 0.000185039 0.00034252c-0.0359331,0.0195984 -0.0781811,0.016374 -0.110083,-0.00476772l-0.991598 -0.540811 -0.865705 0.47215 0.000185039 0.00034252c-0.0359331,0.0195984 -0.0781811,0.016374 -0.110083,-0.00476772l-0.863106 -0.470736zm-0.213339 3.92312l0 -4.10091c-0.000255906,-0.0177559 0.00391732,-0.0358189 0.0130236,-0.0525197 0.0282047,-0.0517165 0.0930039,-0.0707756 0.14472,-0.0425709l-0.000185039 0.00034252 0.977894 0.533339 0.857587 -0.467724c0.0319016,-0.0211417 0.0741496,-0.0243661 0.110083,-0.00476772l-0.000185039 0.00034252 0.999717 0.545236 0.838157 -0.457122c0.0319016,-0.0211417 0.0741496,-0.0243661 0.110083,-0.00476772l-0.000185039 0.00034252 1.00532 0.548287c0.0376535,0.0164685 0.0639724,0.0540433 0.0639724,0.0977717l0 4.10115c0.000216535,0.0176772 -0.00395669,0.0356496 -0.0130236,0.0522717 -0.0282047,0.0517165 -0.093,0.0707795 -0.144717,0.0425748l0.000185039 -0.000338583 -0.962626 -0.525 -0.838157 0.457118c-0.0319016,0.0211417 -0.0741496,0.0243661 -0.110083,0.00476772l0.000185039 -0.00034252 -0.999717 -0.545236 -0.857587 0.467724c-0.0319016,0.0211417 -0.0741496,0.0243661 -0.110083,0.00476772l0.000185039 -0.00034252 -1.02059 -0.556626c-0.0376535,-0.0164685 -0.0639724,-0.0540472 -0.0639724,-0.0977717z"/>
  <g id="_377737960">
   <path id="_377738968" class="fil2" d="M5.22667 4.27687c0.0883543,0 0.168358,0.0358268 0.226268,0.0937362 0.0579094,0.0579094 0.0937362,0.137917 0.0937362,0.226268 0,0.0883543 -0.0358268,0.168358 -0.0937362,0.226268 -0.0579094,0.0579094 -0.137913,0.0937362 -0.226268,0.0937362 -0.0883504,0 -0.168358,-0.0358268 -0.226268,-0.0937362 -0.0579094,-0.0579094 -0.0937362,-0.137913 -0.0937362,-0.226268 0,-0.0883504 0.0358268,-0.168358 0.0937362,-0.226268 0.0579094,-0.0579094 0.137917,-0.0937362 0.226268,-0.0937362zm0.0754331 0.244571c-0.0192913,-0.0192913 -0.0459646,-0.0312323 -0.0754331,-0.0312323 -0.0294646,0 -0.0561417,0.0119409 -0.0754331,0.0312323 -0.0192913,0.0192913 -0.0312323,0.0459685 -0.0312323,0.0754331 0,0.0294685 0.0119409,0.0561417 0.0312323,0.0754331 0.0192913,0.0192913 0.0459685,0.0312323 0.0754331,0.0312323 0.0294685,0 0.0561417,-0.0119409 0.0754331,-0.0312323 0.0192913,-0.0192913 0.0312323,-0.0459646 0.0312323,-0.0754331 0,-0.0294646 -0.0119409,-0.0561417 -0.0312323,-0.0754331z"/>
   <path id="_377738320" class="fil2" d="M3.32642 3.69773l0 -1.26043c0,-0.0797087 -0.0270669,-0.151228 -0.0706654,-0.202228 -0.0397559,-0.0465079 -0.0933504,-0.075378 -0.151169,-0.075378l-0.249661 0c-0.0578189,0 -0.111413,0.028874 -0.151169,0.075378 -0.0435984,0.051 -0.0706614,0.12252 -0.0706614,0.202228l0 1.26043c0,0.131634 -0.0468543,0.252268 -0.122335,0.340559 -0.0793189,0.0927874 -0.189984,0.150386 -0.312839,0.150386l-0.249661 0c-0.122846,0 -0.23352,-0.0575984 -0.312843,-0.150386 -0.0754764,-0.0882953 -0.122331,-0.208921 -0.122331,-0.340559l0 -1.26043 0.213339 0 0 1.26043c0,0.0797126 0.027063,0.151228 0.0706614,0.202228 0.0397559,0.0465039 0.0933543,0.075378 0.151173,0.075378l0.249661 0c0.0578189,0 0.111413,-0.0288701 0.151169,-0.075378 0.0435984,-0.051 0.0706654,-0.12252 0.0706654,-0.202228l0 -1.26043c0,-0.13163 0.0468543,-0.252264 0.122331,-0.340559 0.0793228,-0.0927874 0.189984,-0.150386 0.312839,-0.150386l0.249661 0c0.122854,0 0.23352,0.0575984 0.312839,0.150386 0.0754803,0.0882913 0.122335,0.208925 0.122335,0.340559l0 1.26043 -0.213339 0z"/>
   <path id="_377738992" class="fil2" d="M3.53976 3.05857l0 1.26043c0,0.0797087 0.0270669,0.151228 0.0706654,0.202228 0.0397559,0.0465079 0.0933504,0.075378 0.151169,0.075378l0.249661 0c0.0578189,0 0.111413,-0.028874 0.151169,-0.075378 0.0435984,-0.051 0.0706614,-0.12252 0.0706614,-0.202228l0 -1.26043c0,-0.131634 0.0468543,-0.252268 0.122335,-0.340559 0.0793189,-0.0927874 0.189984,-0.150386 0.312839,-0.150386l0.249661 0c0.122846,0 0.23352,0.0575984 0.312843,0.150386 0.0754764,0.0882953 0.122331,0.208921 0.122331,0.340559l0 1.26043 -0.213339 0 0 -1.26043c0,-0.0797126 -0.027063,-0.151228 -0.0706614,-0.202228 -0.0397559,-0.0465039 -0.0933543,-0.075378 -0.151173,-0.075378l-0.249661 0c-0.0578189,0 -0.111413,0.0288701 -0.151169,0.075378 -0.0435984,0.051 -0.0706654,0.12252 -0.0706654,0.202228l0 1.26043c0,0.13163 -0.0468543,0.252264 -0.122331,0.340559 -0.0793228,0.0927874 -0.189984,0.150386 -0.312839,0.150386l-0.249661 0c-0.122854,0 -0.23352,-0.0575984 -0.312839,-0.150386 -0.0754803,-0.0882913 -0.122335,-0.208925 -0.122335,-0.340559l0 -1.26043 0.213339 0z"/>
   <path id="_377738104" class="fil2" d="M1.64198 1.90978c0.0883504,0 0.168358,0.0358268 0.226268,0.0937362 0.0579094,0.0579094 0.0937362,0.137913 0.0937362,0.226268 0,0.0883504 -0.0358268,0.168358 -0.0937362,0.226268 -0.0579094,0.0579094 -0.137917,0.0937362 -0.226268,0.0937362 -0.0883543,0 -0.168358,-0.0358268 -0.226268,-0.0937362 -0.0579094,-0.0579094 -0.0937362,-0.137917 -0.0937362,-0.226268 0,-0.0883543 0.0358268,-0.168358 0.0937362,-0.226268 0.0579094,-0.0579094 0.137913,-0.0937362 0.226268,-0.0937362zm0.0754331 0.244571c-0.0192913,-0.0192913 -0.0459685,-0.0312323 -0.0754331,-0.0312323 -0.0294685,0 -0.0561417,0.0119409 -0.0754331,0.0312323 -0.0192913,0.0192913 -0.0312323,0.0459646 -0.0312323,0.0754331 0,0.0294646 0.0119409,0.0561417 0.0312323,0.0754331 0.0192913,0.0192913 0.0459646,0.0312323 0.0754331,0.0312323 0.0294646,0 0.0561417,-0.0119409 0.0754331,-0.0312323 0.0192913,-0.0192913 0.0312323,-0.0459685 0.0312323,-0.0754331 0,-0.0294685 -0.0119409,-0.0561417 -0.0312323,-0.0754331z"/>
  </g>
 </g>
</svg>
