<svg xmlns="http://www.w3.org/2000/svg" viewBox="0 0 32 32"><title>Artboard-19</title><g id="Home_Search" data-name="Home Search"><path d="M29.025,24.318l-6.171-6.172a.5.5,0,0,0-.708,0l-.646.647-2.072-2.072a9.519,9.519,0,1,0-2.707,2.707L18.793,21.5l-.647.646a.5.5,0,0,0,0,.708l6.172,6.171a3.328,3.328,0,1,0,4.707-4.707ZM3,11.5A8.5,8.5,0,1,1,11.5,20,8.51,8.51,0,0,1,3,11.5Zm14.537,7.33a9.03,9.03,0,0,0,1.293-1.293L20.793,19.5,19.5,20.793Zm10.781,9.488a2.384,2.384,0,0,1-3.293,0L19.207,22.5c1.428-1.428-1.641,1.642,2.647-2.646l.646-.647,5.818,5.818A2.331,2.331,0,0,1,28.318,28.318Z"/><path d="M15.5,11a.5.5,0,0,0-.5.5v4a.5.5,0,0,1-.5.5H13V13.5a1.5,1.5,0,0,0-3,0V16H8.5a.5.5,0,0,1-.5-.5v-4a.5.5,0,0,0-1,0v4A1.5,1.5,0,0,0,8.5,17h6A1.5,1.5,0,0,0,16,15.5v-4A.5.5,0,0,0,15.5,11ZM11,16V13.5a.5.5,0,0,1,1,0V16Z"/><path d="M16.891,10.813a.5.5,0,0,0-.079-.7l-5-4a.5.5,0,0,0-.625,0l-5,4a.5.5,0,0,0,.625.782L11.5,7.14l4.687,3.751a.5.5,0,0,0,.7-.078Z"/></g></svg>