<?xml version="1.0" encoding="UTF-8"?>
<!DOCTYPE svg PUBLIC "-//W3C//DTD SVG 1.1//EN" "http://www.w3.org/Graphics/SVG/1.1/DTD/svg11.dtd">
<!-- Creator: CorelDRAW -->
<svg xmlns="http://www.w3.org/2000/svg" xml:space="preserve" width="6.82666in" height="6.82666in" style="shape-rendering:geometricPrecision; text-rendering:geometricPrecision; image-rendering:optimizeQuality; fill-rule:evenodd; clip-rule:evenodd"
viewBox="0 0 6.82666 6.82666"
 xmlns:xlink="http://www.w3.org/1999/xlink">
 <defs>
  <style type="text/css">
   <![CDATA[
    .fil1 {fill:none}
    .fil0 {fill:#424242}
    .fil2 {fill:#FFFFFE;fill-rule:nonzero}
   ]]>
  </style>
 </defs>
 <rect class="fil0" width="6.82666" height="6.82666"/>
 <g id="Layer_x0020_1">
  <metadata id="CorelCorpID_0Corel-Layer"/>
  <g id="_377744752">
   <rect id="_377744920" class="fil1" width="6.82666" height="6.82666"/>
   <rect id="_377744968" class="fil1" x="0.853331" y="0.853331" width="5.12" height="5.12"/>
  </g>
  <g id="_377745016">
   <path id="_377744680" class="fil2" d="M2.36421 0.907079l1.08261 1.87515 0.0921339 0.159587 -0.184217 0 -0.66728 0 0 2.92485 0 0.106669 -0.106669 0 -0.617331 0 -0.106669 0 0 -0.106669 0 -2.92485 -0.66728 0 -0.184217 0 0.0921339 -0.159587 1.08261 -1.87515 0.0920827 -0.159488 0.0920827 0.159488zm0.806311 1.82139l-0.898394 -1.55607 -0.898394 1.55607 0.589728 0 0.106669 0 0 0.106669 0 2.92485 0.403992 0 0 -2.92485 0 -0.106669 0.106669 0 0.589728 0z"/>
   <path id="_377744776" class="fil2" d="M4.55453 5.65426l0.898394 -1.55607 -0.589728 0 -0.106669 0 0 -0.106669 0 -2.92485 -0.403992 0 0 2.92485 0 0.106669 -0.106669 0 -0.589728 0 0.898394 1.55607zm1.1747 -1.60982l-1.08261 1.87515 -0.0920827 0.159488 -0.0920827 -0.159488 -1.08261 -1.87515 -0.0921339 -0.159587 0.184217 0 0.66728 0 0 -2.92485 0 -0.106669 0.106669 0 0.617331 0 0.106669 0 0 0.106669 0 2.92485 0.66728 0 0.184217 0 -0.0921339 0.159587z"/>
  </g>
 </g>
</svg>
