<svg xmlns="http://www.w3.org/2000/svg" viewBox="0 0 48 48"><title>25-user</title><g id="_25-user" data-name="25-user"><path d="M24,38a6,6,0,1,1,6-6A6.006,6.006,0,0,1,24,38Zm0-10a4,4,0,1,0,4,4A4,4,0,0,0,24,28Z"/><path d="M31,48H17a1,1,0,0,1-1-1V41a5.006,5.006,0,0,1,5-5h6a5.006,5.006,0,0,1,5,5v6A1,1,0,0,1,31,48ZM18,46H30V41a3,3,0,0,0-3-3H21a3,3,0,0,0-3,3Z"/><path d="M40,33a6,6,0,1,1,6-6A6.006,6.006,0,0,1,40,33Zm0-10a4,4,0,1,0,4,4A4,4,0,0,0,40,23Z"/><path d="M47,43H34V41H46V36a3,3,0,0,0-3-3H37a3,3,0,0,0-3,3H32a5.006,5.006,0,0,1,5-5h6a5.006,5.006,0,0,1,5,5v6A1,1,0,0,1,47,43Z"/><path d="M8,33a6,6,0,1,1,6-6A6.006,6.006,0,0,1,8,33ZM8,23a4,4,0,1,0,4,4A4,4,0,0,0,8,23Z"/><path d="M14,43H1a1,1,0,0,1-1-1V36a5.006,5.006,0,0,1,5-5h6a5.006,5.006,0,0,1,5,5H14a3,3,0,0,0-3-3H5a3,3,0,0,0-3,3v5H14Z"/><path d="M19,24a1,1,0,0,1-.707-.293L12.586,18H3a3,3,0,0,1-3-3V3A3,3,0,0,1,3,0H25a3,3,0,0,1,3,3V15a3,3,0,0,1-3,3H20v5a1,1,0,0,1-.617.924A.987.987,0,0,1,19,24ZM3,2A1,1,0,0,0,2,3V15a1,1,0,0,0,1,1H13a1,1,0,0,1,.707.293L18,20.586V17a1,1,0,0,1,1-1h6a1,1,0,0,0,1-1V3a1,1,0,0,0-1-1Z"/><path d="M34,19a1,1,0,0,1-1-1V15H30V13h4a1,1,0,0,1,1,1v1l1.2-1.6A1,1,0,0,1,37,13h8a1,1,0,0,0,1-1V8a1,1,0,0,0-1-1H30V5H45a3,3,0,0,1,3,3v4a3,3,0,0,1-3,3H37.5l-2.7,3.6A1,1,0,0,1,34,19Z"/><rect x="34" y="9" width="10" height="2"/><rect x="30" y="9" width="2" height="2"/><path d="M7,12a3,3,0,1,1,3-3A3,3,0,0,1,7,12ZM7,8A1,1,0,1,0,8,9,1,1,0,0,0,7,8Z"/><path d="M14,12a3,3,0,1,1,3-3A3,3,0,0,1,14,12Zm0-4a1,1,0,1,0,1,1A1,1,0,0,0,14,8Z"/><path d="M21,12a3,3,0,1,1,3-3A3,3,0,0,1,21,12Zm0-4a1,1,0,1,0,1,1A1,1,0,0,0,21,8Z"/></g></svg>